<svg width="53" height="43" viewBox="0 0 53 43" fill="none" xmlns="http://www.w3.org/2000/svg">
<path d="M51.9381 24.3808L51.8757 24.412C52.0006 24.4745 52.1151 24.5057 52.2192 24.5057C52.3025 24.5057 52.3858 24.5265 52.4691 24.5682C51.7195 24.6931 50.9179 24.6098 50.0643 24.3183C49.9602 24.2975 49.8665 24.2767 49.7832 24.2559C49.8665 24.1518 49.8665 24.0789 49.7832 24.0373C49.7207 23.9956 49.6166 23.9748 49.4709 23.9748C49.346 23.954 49.2419 23.9436 49.1586 23.9436C49.1377 24.0477 49.0857 24.0997 49.0024 24.0997C48.9399 24.0789 48.8567 24.0581 48.7526 24.0373C48.6693 23.9956 48.6068 23.9748 48.5652 23.9748C48.5235 23.9748 48.5235 24.0373 48.5652 24.1622L48.3466 24.1934C48.9087 24.4433 49.4709 24.6306 50.033 24.7556C50.6993 24.8805 51.3447 25.0991 51.9694 25.4114C51.6571 25.4531 51.376 25.4218 51.1261 25.3177C51.1053 25.3177 51.0949 25.3177 51.0949 25.3177C51.1157 25.401 51.0949 25.4739 51.0324 25.5364C50.97 25.578 50.8971 25.6092 50.8138 25.63C50.9387 25.6925 51.0949 25.7446 51.2823 25.7862C51.4489 25.807 51.5946 25.8487 51.7195 25.9111C51.4697 25.9528 51.199 25.9319 50.9075 25.8487C50.5536 25.7446 50.2204 25.7237 49.9081 25.7862C50.3037 26.0361 50.7409 26.213 51.2198 26.3171C51.3656 26.3588 51.5217 26.4004 51.6883 26.4421V26.5045C51.6258 26.4629 51.5634 26.4525 51.5009 26.4733C51.4384 26.4733 51.376 26.4941 51.3135 26.5357C51.2719 26.5566 51.2198 26.5774 51.1574 26.5982C51.0949 26.5982 51.0324 26.5774 50.97 26.5357H51.0012C50.9387 26.5149 50.8555 26.5045 50.7514 26.5045C50.6473 26.5045 50.5536 26.5149 50.4703 26.5357C50.387 26.5566 50.3349 26.5982 50.3141 26.6607C50.0226 26.5982 49.7728 26.5462 49.5646 26.5045C49.2106 26.4212 49.0441 26.4108 49.0649 26.4733C49.1065 26.5149 49.3876 26.7023 49.9081 27.0354C49.8457 27.0563 49.8457 27.0979 49.9081 27.1604C49.9706 27.202 50.0643 27.2645 50.1892 27.3478C50.3141 27.4102 50.439 27.4727 50.564 27.5351C50.7097 27.5976 50.8242 27.6288 50.9075 27.6288C50.8659 27.7121 50.8242 27.7538 50.7826 27.7538C50.7409 27.7538 50.6889 27.7329 50.6264 27.6913C50.5848 27.6705 50.5431 27.6601 50.5015 27.6601C50.4807 27.6601 50.4495 27.6705 50.4078 27.6913C50.5119 27.7538 50.6264 27.7954 50.7514 27.8162C50.8555 27.8579 50.9596 27.8995 51.0637 27.9412C51.022 27.9412 50.9596 27.9516 50.8763 27.9724C50.793 27.9724 50.7097 27.9828 50.6264 28.0036C50.5431 28.0244 50.4703 28.0453 50.4078 28.0661C50.3662 28.0869 50.3662 28.1077 50.4078 28.1285C50.4495 28.1285 50.5536 28.1285 50.7201 28.1285C50.6577 28.2535 50.5848 28.3159 50.5015 28.3159C50.4182 28.2951 50.3349 28.2639 50.2517 28.2222C50.1892 28.2014 50.1371 28.1806 50.0955 28.1598C50.0539 28.2222 50.0122 28.2535 49.9706 28.2535C49.9289 28.2535 49.8873 28.2431 49.8457 28.2222C49.804 28.2014 49.7624 28.191 49.7207 28.191C49.6999 28.1702 49.6687 28.1806 49.627 28.2222C49.627 28.2431 49.6374 28.2639 49.6583 28.2847C49.6791 28.3472 49.6999 28.4096 49.7207 28.4721C49.7624 28.5345 49.8248 28.5658 49.9081 28.5658C49.7832 28.5866 49.7311 28.6282 49.752 28.6907C49.7728 28.7323 49.8144 28.774 49.8769 28.8156C49.9602 28.8364 50.033 28.8364 50.0955 28.8156C50.0122 28.9197 49.9185 28.9718 49.8144 28.9718C49.7311 28.9718 49.6374 28.951 49.5333 28.9093C49.4292 28.8677 49.3147 28.8469 49.1898 28.8469C49.0857 28.8469 48.9816 28.8885 48.8775 28.9718C48.8775 28.9093 48.8567 28.8781 48.815 28.8781C48.7942 28.8781 48.763 28.8885 48.7213 28.9093C48.7005 28.9093 48.6797 28.9301 48.6589 28.9718C48.8463 29.0759 49.0545 29.1279 49.2835 29.1279C49.4917 29.1488 49.6687 29.1904 49.8144 29.2529C49.8144 29.2529 49.804 29.2633 49.7832 29.2841C49.7624 29.2841 49.752 29.2945 49.752 29.3153C49.7311 29.357 49.6999 29.3882 49.6583 29.409C49.6374 29.4298 49.6166 29.4194 49.5958 29.3778C49.5958 29.2737 49.5542 29.2216 49.4709 29.2216C49.4084 29.2008 49.346 29.2008 49.2835 29.2216C49.221 29.2216 49.1586 29.2216 49.0961 29.2216C49.0545 29.2216 49.0232 29.2112 49.0024 29.1904C48.9608 29.3361 48.8983 29.4194 48.815 29.4402C48.7317 29.4611 48.6276 29.4611 48.5027 29.4402C48.4403 29.4194 48.3674 29.409 48.2841 29.409C48.2216 29.409 48.1696 29.4298 48.1279 29.4715C48.1696 29.5339 48.2112 29.5756 48.2529 29.5964C48.3153 29.6172 48.3778 29.6276 48.4403 29.6276C48.5027 29.6068 48.5548 29.6068 48.5964 29.6276C48.6589 29.6276 48.7109 29.6589 48.7526 29.7213C48.6901 29.7213 48.6172 29.7213 48.5339 29.7213C48.4507 29.7005 48.3674 29.7005 48.2841 29.7213C48.2216 29.7213 48.1696 29.7317 48.1279 29.7526C48.1904 29.7942 48.2737 29.8358 48.3778 29.8775C48.5444 29.9608 48.6901 30.0441 48.815 30.1273C48.9399 30.2106 48.9712 30.2835 48.9087 30.346C48.8671 30.3876 48.6797 30.4188 48.3466 30.4396C48.3257 30.4188 48.3153 30.4084 48.3153 30.4084C48.3361 30.3876 48.3466 30.3772 48.3466 30.3772C48.3674 30.3772 48.3882 30.3772 48.409 30.3772C48.4298 30.3772 48.4507 30.3772 48.4715 30.3772C48.4923 30.3772 48.5027 30.3668 48.5027 30.346C48.4819 30.3043 48.4507 30.2835 48.409 30.2835C48.3674 30.2835 48.3361 30.2835 48.3153 30.2835C48.2737 30.3043 48.2425 30.3147 48.2216 30.3147C48.2216 30.4188 48.1904 30.4813 48.1279 30.5021C48.0863 30.5229 48.0238 30.5438 47.9406 30.5646C47.8573 30.5646 47.7844 30.5854 47.7219 30.627C47.6595 30.6479 47.6074 30.6895 47.5658 30.752C47.6074 30.7936 47.6178 30.8352 47.597 30.8769C47.597 30.8977 47.5866 30.9185 47.5658 30.9393C47.5241 30.981 47.5033 31.0226 47.5033 31.0643C47.5033 31.1059 47.5345 31.1371 47.597 31.158C47.6178 31.2204 47.6074 31.2725 47.5658 31.3141C47.5241 31.3349 47.4721 31.3662 47.4096 31.4078C47.3888 31.4078 47.3576 31.4182 47.3159 31.439C47.2951 31.4599 47.2847 31.4911 47.2847 31.5327C47.2847 31.5744 47.3159 31.616 47.3784 31.6577C47.2326 31.8034 47.1702 31.9387 47.191 32.0637C47.2118 32.1886 47.2639 32.3135 47.3472 32.4384C47.4096 32.5425 47.4721 32.6466 47.5345 32.7508C47.5137 32.7924 47.4825 32.8132 47.4409 32.8132C47.42 32.834 47.3992 32.8549 47.3784 32.8757C47.3784 32.8757 47.3888 32.8965 47.4096 32.9381C47.4721 32.9381 47.5137 32.959 47.5345 33.0006C47.5554 33.0214 47.5658 33.0631 47.5658 33.1255C47.5658 33.1672 47.5762 33.2088 47.597 33.2505C47.6178 33.2713 47.6699 33.2713 47.7532 33.2505C47.774 33.3962 47.7948 33.5524 47.8156 33.7189C47.8156 33.9688 47.8364 34.1978 47.8781 34.406C47.9406 34.635 48.0447 34.7912 48.1904 34.8745C48.1696 34.9786 48.1592 35.0619 48.1592 35.1243C48.1592 35.1868 48.1696 35.2492 48.1904 35.3117C48.2112 35.395 48.2112 35.4679 48.1904 35.5303C48.1904 35.5928 48.1488 35.6553 48.0655 35.7177C48.1488 35.7385 48.2008 35.7698 48.2216 35.8114C48.2633 35.853 48.2737 35.9051 48.2529 35.9676C48.232 36.03 48.2112 36.0821 48.1904 36.1237C48.1904 36.1654 48.1904 36.1966 48.1904 36.2174C48.1279 36.2799 48.1071 36.3215 48.1279 36.3423C48.1488 36.384 48.18 36.4256 48.2216 36.4673C48.2633 36.4881 48.2945 36.5089 48.3153 36.5297C48.3361 36.5714 48.3466 36.613 48.3466 36.6546C48.3674 36.7588 48.3674 36.842 48.3466 36.9045C48.3257 36.967 48.2945 37.019 48.2529 37.0607C48.2112 37.1231 48.18 37.1856 48.1592 37.248C48.1592 37.3105 48.2008 37.3834 48.2841 37.4667L48.1279 37.5604C48.1488 37.602 48.1488 37.6332 48.1279 37.654C48.1071 37.6957 48.0863 37.7269 48.0655 37.7477C48.0238 37.7894 47.9926 37.8206 47.9718 37.8414C47.9718 37.8623 47.9718 37.8831 47.9718 37.9039C47.9926 37.9455 48.0447 37.9768 48.1279 37.9976L47.9093 38.2474L48.003 38.2787L47.8469 38.5285C47.9093 38.5702 47.9406 38.6118 47.9406 38.6534C47.9614 38.7159 47.9718 38.7784 47.9718 38.8408C47.951 38.8825 47.9406 38.9241 47.9406 38.9658C47.9406 39.0282 47.9718 39.0803 48.0342 39.1219C48.0342 39.2468 48.0238 39.3405 48.003 39.403C47.9822 39.4655 47.951 39.5071 47.9093 39.5279C47.8885 39.5487 47.8573 39.5591 47.8156 39.5591C47.7532 39.5591 47.7011 39.58 47.6595 39.6216C47.6387 39.6633 47.6282 39.7465 47.6282 39.8715C47.4617 39.9547 47.2951 40.0797 47.1285 40.2462C46.962 40.392 46.785 40.5169 46.5976 40.621C46.431 40.7459 46.2437 40.7876 46.0355 40.7459C45.8064 40.975 45.5149 41.1832 45.161 41.3706C44.807 41.5579 44.4635 41.6204 44.1303 41.5579C44.1303 41.6204 44.1095 41.662 44.0679 41.6829C44.0471 41.7037 44.0262 41.7245 44.0054 41.7453C43.9638 41.7662 43.9326 41.787 43.9117 41.8078C43.8909 41.8494 43.8909 41.8911 43.9117 41.9327C43.7868 41.9535 43.6619 41.9535 43.537 41.9327C43.4329 41.9119 43.3183 41.8807 43.1934 41.839C43.1101 41.7974 43.006 41.7662 42.8811 41.7453C42.8603 41.7662 42.8395 41.7974 42.8186 41.839C42.7978 41.8807 42.777 41.9223 42.7562 41.9639C42.7562 42.0056 42.7458 42.0368 42.7249 42.0576C42.7041 42.0993 42.6729 42.1201 42.6313 42.1201C42.5896 42.1201 42.5376 42.0993 42.4751 42.0576C42.3294 41.8911 42.2148 41.6933 42.1316 41.4643C42.0483 41.2769 41.9546 41.1207 41.8505 40.9958C41.7464 40.8709 41.6006 40.8188 41.4132 40.8396C41.2467 40.215 40.9552 39.7049 40.5388 39.3093C40.3306 39.1011 40.1432 38.8721 39.9766 38.6222C40.0391 38.6014 40.0599 38.5702 40.0391 38.5285C40.0391 38.5077 40.0287 38.4869 40.0078 38.4661C39.987 38.4452 39.9662 38.4244 39.9454 38.4036C39.9454 38.3828 39.9454 38.3724 39.9454 38.3724C39.8413 38.3724 39.758 38.3411 39.6955 38.2787C39.6539 38.2162 39.6122 38.1433 39.5706 38.0601C39.529 37.9976 39.4769 37.9351 39.4144 37.8727C39.352 37.831 39.2687 37.8102 39.1646 37.8102C39.2687 37.7061 39.3103 37.5916 39.2895 37.4667C39.2895 37.3626 39.2583 37.248 39.1958 37.1231C39.1125 36.9566 39.0709 36.8004 39.0709 36.6546C39.2791 36.613 39.4144 36.5505 39.4769 36.4673C39.5394 36.4048 39.4977 36.3007 39.352 36.155C39.4353 36.0925 39.4665 36.03 39.4457 35.9676C39.4249 35.9259 39.3832 35.8843 39.3207 35.8426C39.2999 35.801 39.2791 35.7594 39.2583 35.7177C39.2375 35.6969 39.2166 35.6761 39.1958 35.6553V35.6865C39.0917 35.624 39.0084 35.5407 38.946 35.4366C38.9252 35.3742 38.8835 35.3117 38.821 35.2492C38.7794 35.2076 38.7065 35.1868 38.6024 35.1868C38.6024 35.166 38.592 35.1451 38.5712 35.1243C38.5712 35.1035 38.5608 35.0827 38.54 35.0619C38.5191 35.041 38.5087 35.0306 38.5087 35.0306C38.6337 35.0723 38.7586 35.0827 38.8835 35.0619C38.9668 35.041 39.0501 35.0306 39.1334 35.0306C39.2166 35.0514 39.2895 35.0723 39.352 35.0931C39.3103 34.9473 39.2375 34.8328 39.1334 34.7495C39.0501 34.6663 38.9876 34.5726 38.946 34.4685C38.9043 34.3852 38.9043 34.2603 38.946 34.0937C38.9876 34.0521 38.9876 34.0208 38.946 34C38.9043 33.9584 38.8523 33.9271 38.7898 33.9063C38.7274 33.8855 38.6649 33.8647 38.6024 33.8438C38.5608 33.8022 38.5608 33.7397 38.6024 33.6565C38.5191 33.6148 38.4567 33.5628 38.415 33.5003C38.3942 33.417 38.3838 33.3337 38.3838 33.2505C38.363 33.1463 38.3214 33.0527 38.2589 32.9694C38.2172 32.8861 38.1236 32.8444 37.9778 32.8444C37.9986 32.6571 37.9258 32.4384 37.7592 32.1886C37.6134 31.9179 37.4052 31.6681 37.1346 31.439C36.8847 31.1892 36.6453 31.0226 36.4162 30.9393C36.1872 30.8352 36.0207 30.8769 35.9166 31.0643C35.7083 30.8352 35.4689 30.7311 35.1982 30.752C34.9276 30.752 34.6465 30.7936 34.355 30.8769C34.126 30.9393 33.9073 30.9914 33.6991 31.033C33.4909 31.0539 33.3035 31.0122 33.137 30.9081V31.033C33.0329 30.9706 32.9184 30.9393 32.7934 30.9393C32.6685 30.9185 32.5644 30.9081 32.4811 30.9081L32.6373 31.033C32.554 31.0747 32.4707 31.1059 32.3874 31.1267C32.3458 31.1267 32.3041 31.1371 32.2625 31.158C32.2209 31.158 32.1896 31.1788 32.1688 31.2204C32.0647 31.158 31.9502 31.1371 31.8253 31.158C31.7003 31.1788 31.5754 31.21 31.4505 31.2517C31.3464 31.2933 31.2423 31.3245 31.1382 31.3454C31.0341 31.3454 30.9404 31.3349 30.8571 31.3141C30.8363 31.3766 30.805 31.4286 30.7634 31.4703C30.7218 31.4911 30.6697 31.5223 30.6073 31.564C30.5656 31.5848 30.524 31.616 30.4823 31.6577C30.3782 31.5952 30.2325 31.5327 30.0451 31.4703C29.8785 31.387 29.7328 31.3349 29.6079 31.3141C29.6287 31.3558 29.6391 31.387 29.6391 31.4078C29.6599 31.4078 29.6807 31.4078 29.7015 31.4078C29.7224 31.4078 29.7432 31.4182 29.764 31.439C29.7848 31.439 29.8057 31.4599 29.8265 31.5015C29.7224 31.5848 29.6391 31.6368 29.5766 31.6577C29.5142 31.6577 29.4725 31.6473 29.4517 31.6264C29.4309 31.5848 29.4101 31.5431 29.3892 31.5015C29.3892 31.4599 29.3684 31.4286 29.3268 31.4078C29.306 31.3662 29.2539 31.3558 29.1706 31.3766C29.0249 31.5431 28.8271 31.6473 28.5772 31.6889C28.3482 31.7097 28.0983 31.7201 27.8277 31.7201C27.5778 31.6993 27.3384 31.6993 27.1094 31.7201C26.8803 31.7409 26.6721 31.8138 26.4847 31.9387C26.11 31.8555 25.7456 31.8555 25.3916 31.9387C25.0585 32.0012 24.715 32.0949 24.361 32.2198C23.8405 32.4489 23.2992 32.5738 22.737 32.5946C22.6954 32.782 22.6121 32.8965 22.4871 32.9381C22.383 32.9798 22.2581 33.0006 22.1124 33.0006C21.9666 33.0006 21.8313 33.011 21.7064 33.0318C21.6023 33.0527 21.519 33.1255 21.4565 33.2505C21.29 33.2713 21.1442 33.3025 21.0193 33.3441C20.9152 33.365 20.8111 33.3858 20.707 33.4066C20.707 33.4274 20.6861 33.4482 20.6445 33.4691C20.6237 33.4899 20.6029 33.5107 20.582 33.5315C20.5404 33.5732 20.4988 33.6148 20.4571 33.6565C20.4363 33.6773 20.4363 33.7189 20.4571 33.7814C20.3947 33.823 20.3426 33.8334 20.301 33.8126C20.2593 33.7918 20.2281 33.7606 20.2073 33.7189C20.1865 33.6773 20.1656 33.646 20.1448 33.6252C20.124 33.6044 20.1032 33.5836 20.0823 33.5628C20.0823 33.7085 20.0511 33.8022 19.9887 33.8438C19.9262 33.8855 19.8533 33.8959 19.77 33.8751C19.7076 33.8334 19.6659 33.7606 19.6451 33.6565C19.5202 33.6565 19.4265 33.6877 19.364 33.7502C19.3224 33.7918 19.2807 33.8438 19.2391 33.9063C19.1975 33.9896 19.1454 34.0521 19.0829 34.0937C19.0413 34.1562 18.958 34.177 18.8331 34.1562C18.8123 34.2186 18.781 34.2603 18.7394 34.2811C18.6978 34.3019 18.6561 34.3123 18.6145 34.3123C18.552 34.3123 18.5 34.3227 18.4583 34.3435C18.4167 34.3852 18.3959 34.4476 18.3959 34.5309C18.3334 34.5726 18.2918 34.6142 18.2709 34.6559C18.2501 34.6975 18.2397 34.7391 18.2397 34.7808C18.2397 34.8224 18.2293 34.8641 18.2085 34.9057C18.1877 34.9473 18.1564 34.989 18.1148 35.0306C18.0731 35.0931 18.0211 35.1243 17.9586 35.1243C17.917 35.1451 17.8753 35.1451 17.8337 35.1243C17.7712 35.1243 17.7192 35.1347 17.6775 35.1556C17.6359 35.1764 17.6151 35.2388 17.6151 35.3429C17.6151 35.3429 17.6047 35.3429 17.5839 35.3429C17.563 35.3638 17.5422 35.3742 17.5214 35.3742C17.5214 35.395 17.5214 35.4158 17.5214 35.4366C17.4173 35.5616 17.3132 35.7073 17.2091 35.8739C17.1258 36.0196 17.0217 36.155 16.8968 36.2799C16.7927 36.4256 16.6365 36.5505 16.4283 36.6546C16.0535 37.9664 15.2207 38.8929 13.9298 39.4342C13.9298 39.5383 13.8986 39.6008 13.8361 39.6216C13.7736 39.6633 13.7112 39.6945 13.6487 39.7153C13.5446 39.7153 13.4613 39.7361 13.3989 39.7778C13.3572 39.6737 13.3052 39.6216 13.2427 39.6216C13.2011 39.6216 13.149 39.632 13.0866 39.6528C13.0241 39.6737 12.972 39.6841 12.9304 39.6841C12.8888 39.7049 12.8367 39.7049 12.7743 39.6841C12.7743 39.8298 12.7534 39.9339 12.7118 39.9964C12.691 40.0588 12.6597 40.0901 12.6181 40.0901C12.5765 40.0901 12.5244 40.0797 12.4619 40.0588C12.4203 40.038 12.3682 40.0276 12.3058 40.0276C12.2641 40.0276 12.2225 40.0588 12.1809 40.1213C11.9518 40.1213 11.7332 40.1317 11.525 40.1525C11.2543 40.2358 10.9733 40.2358 10.6818 40.1525C10.7234 40.0693 10.7234 39.9964 10.6818 39.9339C10.6609 39.8923 10.6297 39.8402 10.5881 39.7778C10.5256 39.7153 10.484 39.6528 10.4631 39.5904C10.359 39.5487 10.2653 39.5175 10.1821 39.4967C9.82811 39.3926 9.48457 39.3197 9.15144 39.2781C8.8183 39.2572 8.46435 39.3405 8.08958 39.5279C8.1104 39.4238 8.09999 39.3509 8.05834 39.3093C8.0167 39.2677 7.96465 39.2364 7.90219 39.2156C7.83973 39.1948 7.78767 39.1636 7.74603 39.1219C7.70439 39.0803 7.68357 39.0178 7.68357 38.9345C7.57947 38.8304 7.47536 38.7888 7.37126 38.8096C7.26716 38.8304 7.16305 38.8825 7.05895 38.9658C7.05895 38.9449 7.05895 38.9345 7.05895 38.9345C7.05895 38.9345 7.04854 38.9241 7.02772 38.9033C6.98607 38.9033 6.95484 38.9033 6.93402 38.9033C6.9132 38.9241 6.88197 38.9345 6.84033 38.9345C6.81951 38.9345 6.78828 38.9241 6.74664 38.9033C6.78828 38.7784 6.79869 38.6847 6.77787 38.6222C6.75705 38.5806 6.7154 38.5493 6.65294 38.5285C6.6113 38.5077 6.55925 38.4973 6.49679 38.4973C6.39268 38.4765 6.3094 38.4452 6.24694 38.4036C6.18447 38.362 6.17406 38.2787 6.21571 38.1537C6.13242 38.0288 6.09078 37.8831 6.09078 37.7165C6.1116 37.5499 6.17406 37.425 6.27817 37.3417C6.21571 37.2793 6.19488 37.2272 6.21571 37.1856C6.23653 37.1439 6.26776 37.1023 6.3094 37.0607C6.37186 37.019 6.43432 36.9774 6.49679 36.9357C6.55925 36.9149 6.60089 36.8941 6.62171 36.8733L6.59048 36.842C6.7154 36.8004 6.77787 36.7483 6.77787 36.6859C6.79869 36.6234 6.79869 36.561 6.77787 36.4985C6.75705 36.4152 6.74664 36.3423 6.74664 36.2799C6.76746 36.2174 6.84033 36.1654 6.96525 36.1237C7.0069 35.9363 6.94443 35.7906 6.77787 35.6865C6.86115 35.6657 6.93402 35.6032 6.99648 35.4991C7.07977 35.395 7.12141 35.2805 7.12141 35.1556C7.12141 35.0514 7.05895 34.9786 6.93402 34.9369C6.99648 34.5622 7.01731 34.2915 6.99648 34.1249C6.99648 33.9792 6.96525 33.8959 6.90279 33.8751C6.84033 33.8543 6.74664 33.8647 6.62171 33.9063C6.43432 33.9896 6.18447 34.0208 5.87216 34C5.55985 33.9792 5.18508 33.8022 4.74784 33.4691C4.62292 33.4482 4.49799 33.4378 4.37307 33.4378C4.22732 33.4587 4.09199 33.4587 3.96706 33.4378C3.84214 33.3962 3.76926 33.2921 3.74844 33.1255C3.72762 33.1047 3.71721 33.0943 3.71721 33.0943C3.52982 32.8444 3.3008 32.5842 3.03013 32.3135C2.75946 32.022 2.46796 31.8138 2.15565 31.6889C2.21812 31.6264 2.24935 31.564 2.24935 31.5015C2.22853 31.439 2.19729 31.3766 2.15565 31.3141C2.11401 31.2725 2.08278 31.2204 2.06196 31.158C1.97868 31.1788 1.92662 31.1788 1.9058 31.158C1.86416 31.1163 1.83293 31.0747 1.81211 31.033C1.79129 30.9706 1.76006 30.9289 1.71842 30.9081C1.76006 30.804 1.76006 30.7311 1.71842 30.6895C1.65595 30.6479 1.59349 30.6166 1.53103 30.5958C1.46857 30.5542 1.41652 30.5125 1.37487 30.4709C1.33323 30.4084 1.34364 30.3251 1.40611 30.221C1.21872 30.0336 1.06256 29.7942 0.937637 29.5027C0.812713 29.232 0.656557 28.9718 0.46917 28.7219C0.531632 28.6595 0.573274 28.6178 0.594095 28.597C0.594095 28.5554 0.583684 28.5345 0.562863 28.5345C0.542043 28.5137 0.510811 28.5137 0.46917 28.5345C0.427528 28.5345 0.385887 28.5345 0.344245 28.5345C0.281783 28.5137 0.240141 28.4929 0.219321 28.4721C0.281783 28.368 0.313014 28.2535 0.313014 28.1285C0.313014 27.9828 0.302604 27.8475 0.281783 27.7225C0.240141 27.5143 0.229731 27.3478 0.250552 27.2228C0.271372 27.0771 0.375476 26.9834 0.562863 26.9418C0.646147 26.7335 0.698198 26.5253 0.719019 26.3171C0.760661 26.1089 0.823123 25.9215 0.906406 25.755C0.968869 25.5676 1.1042 25.401 1.31241 25.2553C1.22913 25.2136 1.18749 25.1824 1.18749 25.1616C1.16667 25.1199 1.17708 25.0887 1.21872 25.0679C1.26036 25.0262 1.31241 24.995 1.37487 24.9742C1.41652 24.9534 1.45816 24.9325 1.4998 24.9117C1.35405 24.5786 1.35405 24.36 1.4998 24.2559C1.64554 24.1309 1.84334 24.0477 2.09319 24.006C2.25976 23.9852 2.41591 23.954 2.56166 23.9123C2.7074 23.8499 2.82192 23.7562 2.9052 23.6313C3.00931 23.6521 3.09259 23.6313 3.15505 23.5688C3.19669 23.4855 3.22792 23.4022 3.24874 23.3189C3.26957 23.2565 3.29039 23.2044 3.31121 23.1628C3.33203 23.1211 3.36326 23.1107 3.4049 23.1316C3.46736 23.1316 3.55065 23.1732 3.65475 23.2565C3.71721 23.2357 3.74844 23.2044 3.74844 23.1628C3.76926 23.1211 3.77967 23.0795 3.77967 23.0379C3.77967 22.9754 3.80049 22.9129 3.84214 22.8505C4.0087 22.9546 4.14404 22.9858 4.24814 22.9442C4.35225 22.8817 4.44594 22.788 4.52922 22.6631C4.61251 22.559 4.7062 22.4757 4.8103 22.4132C4.93523 22.33 5.07056 22.33 5.21631 22.4132C5.23713 22.33 5.26836 22.2883 5.31 22.2883C5.37246 22.2883 5.43493 22.3091 5.49739 22.3508C5.55985 22.3924 5.6119 22.4236 5.65354 22.4445C5.71601 22.4445 5.77847 22.4341 5.84093 22.4132C5.86175 22.2883 5.9138 22.2258 5.99709 22.2258C6.08037 22.205 6.18447 22.2154 6.3094 22.2571C6.39268 22.2779 6.46555 22.2987 6.52802 22.3195C6.6113 22.3195 6.67376 22.2987 6.7154 22.2571C6.75705 22.1738 6.79869 22.1322 6.84033 22.1322C6.90279 22.1113 6.97566 22.1113 7.05895 22.1322C7.14223 22.153 7.2151 22.1634 7.27757 22.1634C7.36085 22.1634 7.43372 22.1322 7.49618 22.0697C7.49618 22.1322 7.517 22.1738 7.55865 22.1946C7.60029 22.1946 7.64193 22.1842 7.68357 22.1634C7.70439 22.1634 7.72521 22.1634 7.74603 22.1634C7.76685 22.1634 7.78767 22.1634 7.8085 22.1634C7.89178 22.0801 7.97506 22.0489 8.05834 22.0697C8.14163 22.0697 8.23532 22.0905 8.33943 22.1322C8.42271 22.1738 8.5164 22.205 8.62051 22.2258C8.72461 22.2258 8.82871 22.1842 8.93282 22.1009C8.93282 21.9968 8.96405 21.9344 9.02651 21.9135C9.10979 21.8719 9.2139 21.8511 9.33882 21.8511C9.44293 21.8719 9.53662 21.8615 9.6199 21.8198C9.64072 21.6741 9.69278 21.6012 9.77606 21.6012C9.88016 21.6012 9.99468 21.622 10.1196 21.6637C10.2445 21.7261 10.359 21.7574 10.4631 21.7574C10.484 21.6741 10.484 21.5908 10.4631 21.5075C10.4631 21.4242 10.4631 21.3514 10.4631 21.2889C10.4631 21.2056 10.4944 21.1432 10.5568 21.1015L10.4944 21.0703L10.9004 20.8829C10.9212 20.9662 10.9524 21.0182 10.9941 21.0391C11.0565 21.0391 11.119 21.0287 11.1815 21.0078C11.2439 20.987 11.3064 20.987 11.3688 21.0078C11.4313 21.0078 11.473 21.0495 11.4938 21.1328C11.5771 21.1119 11.6499 21.0807 11.7124 21.0391C11.7749 20.9974 11.8373 20.9662 11.8998 20.9454C11.9831 20.9245 12.0663 20.9454 12.1496 21.0078C12.1704 20.9037 12.2121 20.8517 12.2746 20.8517C12.337 20.8309 12.4099 20.8309 12.4932 20.8517C12.5765 20.8725 12.6701 20.8829 12.7743 20.8829C12.7743 20.7788 12.7951 20.7163 12.8367 20.6955C12.8992 20.6747 12.9616 20.6747 13.0241 20.6955C13.0657 20.6955 13.1074 20.6955 13.149 20.6955C13.1907 20.6747 13.2219 20.6331 13.2427 20.5706C13.0762 20.529 13.0033 20.4561 13.0241 20.352C13.0449 20.2479 13.1074 20.1646 13.2115 20.1021C13.3364 20.0397 13.4509 20.0397 13.555 20.1021C13.5759 20.0188 13.6175 19.9564 13.68 19.9147C13.7424 19.8731 13.8153 19.8523 13.8986 19.8523C13.9819 19.8315 14.0443 19.8106 14.086 19.7898C14.1484 19.769 14.1692 19.7065 14.1484 19.6024C14.1484 19.54 14.1588 19.4983 14.1797 19.4775C14.2005 19.4567 14.2317 19.4359 14.2733 19.415C14.2942 19.415 14.315 19.415 14.3358 19.415C14.3775 19.3942 14.3983 19.363 14.3983 19.3213C14.4607 19.3422 14.5024 19.3318 14.5232 19.2901C14.5648 19.2277 14.5961 19.1548 14.6169 19.0715C14.6585 19.009 14.7002 18.9466 14.7418 18.8841C14.7835 18.8008 14.8251 18.7488 14.8667 18.728C14.8251 18.7071 14.8043 18.6759 14.8043 18.6343C14.8043 18.5926 14.8147 18.551 14.8355 18.5093C14.8563 18.4677 14.8667 18.4261 14.8667 18.3844C14.8876 18.322 14.8772 18.2699 14.8355 18.2283C14.8147 18.1866 14.8147 18.1658 14.8355 18.1658C14.8772 18.145 14.9084 18.1346 14.9292 18.1346C14.9708 18.1346 15.0021 18.1346 15.0229 18.1346C15.0229 18.1554 15.0229 18.1762 15.0229 18.197C15.0437 18.2178 15.0645 18.2283 15.0854 18.2283C15.1062 18.2491 15.1166 18.2699 15.1166 18.2907C15.1582 18.2074 15.2103 18.1658 15.2727 18.1658C15.3352 18.145 15.4081 18.1346 15.4914 18.1346C15.5955 18.1346 15.6892 18.1137 15.7724 18.0721C15.6892 17.8639 15.6892 17.7286 15.7724 17.6661C15.8765 17.5828 16.0015 17.5204 16.1472 17.4787C16.2513 17.4579 16.345 17.4267 16.4283 17.385L16.3658 17.3538C16.6157 17.1872 16.8031 16.9686 16.928 16.6979C17.0321 16.4897 17.1674 16.3232 17.334 16.1982C17.334 16.1149 17.3548 16.0421 17.3965 15.9796C17.4381 15.9172 17.4797 15.8651 17.5214 15.8235C17.5839 15.7402 17.6255 15.6569 17.6463 15.5736C17.6671 15.4903 17.6359 15.3654 17.5526 15.1988C17.6567 15.2405 17.7504 15.2717 17.8337 15.2925C17.9378 15.2925 18.0107 15.2613 18.0523 15.1988C18.094 15.1364 18.0731 15.0219 17.9899 14.8553C18.1981 14.7095 18.3542 14.5326 18.4583 14.3244C18.5832 14.0953 18.6874 13.8663 18.7706 13.6373C18.7706 13.6165 18.781 13.5956 18.8019 13.5748C18.9893 13.554 19.1142 13.4707 19.1766 13.325C19.2391 13.1584 19.2703 12.9814 19.2703 12.794C19.2912 12.794 19.3016 12.7836 19.3016 12.7628C19.3224 12.7628 19.3432 12.7524 19.364 12.7316C19.3016 12.7108 19.2703 12.6691 19.2703 12.6066C19.2703 12.5442 19.2807 12.4921 19.3016 12.4505C19.3432 12.388 19.3953 12.3568 19.4577 12.3568C19.5618 12.4609 19.6347 12.4921 19.6763 12.4505C19.718 12.388 19.7492 12.2943 19.77 12.1694C19.7909 12.0861 19.8117 12.0133 19.8325 11.9508C19.8741 11.8675 19.9158 11.8155 19.9574 11.7946C20.1032 11.7946 20.1865 11.7634 20.2073 11.7009C20.2489 11.6385 20.2697 11.5552 20.2697 11.4511C20.2489 11.3678 20.2489 11.2949 20.2697 11.2325C20.2906 11.1492 20.3322 11.0763 20.3947 11.0139C20.5196 11.0763 20.6341 11.0763 20.7382 11.0139C20.8423 10.9306 20.9048 10.8056 20.9256 10.6391C20.8007 10.5558 20.7486 10.4829 20.7694 10.4205C20.8111 10.358 20.8735 10.2955 20.9568 10.2331C21.0401 10.1706 21.1026 10.1082 21.1442 10.0457C21.2067 9.96241 21.2171 9.8583 21.1754 9.73338C21.2587 9.69174 21.3316 9.61886 21.3941 9.51476C21.4773 9.41066 21.5502 9.29614 21.6127 9.17122C21.6751 9.06711 21.7376 8.97342 21.8001 8.89014C21.8001 8.86932 21.8105 8.85891 21.8313 8.85891C21.8729 8.83809 21.9146 8.81726 21.9562 8.79644C21.9979 8.79644 22.0291 8.78603 22.0499 8.76521C22.0916 8.74439 22.1124 8.71316 22.1124 8.67152C22.1332 8.62988 22.1228 8.57783 22.0811 8.51536C21.9979 8.47372 21.977 8.40085 22.0187 8.29675C22.0811 8.31757 22.1228 8.30716 22.1436 8.26551C22.1852 8.22387 22.2165 8.17182 22.2373 8.10936C22.2373 8.0469 22.2581 7.99484 22.2998 7.9532C22.5704 7.97402 22.7682 7.91156 22.8932 7.76582C23.0181 7.62007 23.0909 7.4535 23.1118 7.26612C22.8827 7.18283 22.7682 7.10996 22.7682 7.0475C22.7682 6.96422 22.8307 6.90175 22.9556 6.86011C23.0805 6.79765 23.2159 6.7456 23.3616 6.70396C23.2159 6.59985 23.1534 6.49575 23.1742 6.39164C23.2159 6.26672 23.2783 6.1522 23.3616 6.0481C23.3824 6.02728 23.3929 6.00646 23.3929 5.98564C23.372 5.86071 23.372 5.76702 23.3929 5.70456C23.4345 5.6421 23.4865 5.59004 23.549 5.5484C23.5698 5.50676 23.5802 5.47553 23.5802 5.45471C23.6011 5.43389 23.5802 5.40266 23.5178 5.36101C23.4761 5.31937 23.3824 5.26732 23.2367 5.20486C23.2575 5.1424 23.2783 5.10076 23.2992 5.07993C23.3408 5.05911 23.3824 5.05911 23.4241 5.07993C23.4657 5.07993 23.5074 5.09034 23.549 5.11117C23.5698 5.06952 23.5698 5.0487 23.549 5.0487C23.549 5.02788 23.5386 5.00706 23.5178 4.98624C23.497 4.96542 23.4761 4.95501 23.4553 4.95501C23.4553 4.93419 23.4553 4.91337 23.4553 4.89255C23.4553 4.87173 23.4657 4.8405 23.4865 4.79885C23.6323 4.73639 23.6948 4.66352 23.6739 4.58024C23.6531 4.47613 23.6011 4.37203 23.5178 4.26792C23.4345 4.16382 23.3824 4.07013 23.3616 3.98684C23.6323 3.96602 23.8197 3.9452 23.9238 3.92438C24.0279 3.88274 24.0903 3.83069 24.1112 3.76823C24.132 3.70576 24.1424 3.63289 24.1424 3.54961C24.1216 3.46632 24.1216 3.38304 24.1424 3.29976C24.184 3.21647 24.2673 3.13319 24.3922 3.04991C24.3922 3.02909 24.4027 3.00827 24.4235 2.98745C24.4651 2.9458 24.4964 2.91457 24.5172 2.89375C24.5796 2.85211 24.6213 2.82088 24.6421 2.80006C24.6837 2.75842 24.7046 2.71678 24.7046 2.67513C24.7046 2.61267 24.6733 2.56062 24.6109 2.51898C24.6317 2.45652 24.6629 2.41487 24.7046 2.39405C24.767 2.37323 24.8295 2.35241 24.8919 2.33159C24.9961 2.33159 25.0689 2.31077 25.1106 2.26913C25.173 2.20667 25.1938 2.11297 25.173 1.98805C25.2563 1.98805 25.3084 1.96723 25.3292 1.92559C25.3708 1.88394 25.3916 1.83189 25.3916 1.76943C25.4125 1.72779 25.4333 1.69656 25.4541 1.67574C25.4749 1.6341 25.5062 1.60286 25.5478 1.58204C25.6311 1.70697 25.7144 1.75902 25.7977 1.7382C25.9018 1.69656 25.9954 1.6341 26.0787 1.55081C26.1828 1.48835 26.2765 1.44671 26.3598 1.42589C26.4015 1.38425 26.4431 1.37384 26.4847 1.39466C26.5472 1.39466 26.5993 1.40507 26.6409 1.42589C26.6825 1.42589 26.7138 1.42589 26.7346 1.42589C26.7554 1.42589 26.7554 1.41548 26.7346 1.39466C26.7138 1.35301 26.6825 1.29055 26.6409 1.20727C26.745 1.06152 26.8803 1.00947 27.0469 1.05111C27.2343 1.09275 27.3904 1.15522 27.5154 1.2385C27.557 1.25932 27.5986 1.28014 27.6403 1.30096C27.6819 1.17604 27.7548 1.09275 27.8589 1.05111C27.963 1.00947 28.0671 0.988651 28.1712 0.988651C28.317 0.96783 28.4419 0.936599 28.546 0.894957C28.6709 0.832495 28.7542 0.70757 28.7958 0.520183C28.8375 0.561825 28.8687 0.582646 28.8895 0.582646C28.9312 0.582646 28.9728 0.582646 29.0145 0.582646C29.0353 0.561825 29.0561 0.561825 29.0769 0.582646C29.0977 0.582646 29.1082 0.593056 29.1082 0.613877C29.129 0.634698 29.1394 0.676339 29.1394 0.738801C29.181 0.780443 29.2227 0.801264 29.2643 0.801264C29.3268 0.780443 29.3788 0.759622 29.4205 0.738801C29.4829 0.717981 29.535 0.70757 29.5766 0.70757C29.6391 0.70757 29.6807 0.759622 29.7015 0.863726C29.7848 0.822085 29.8473 0.811674 29.8889 0.832495C29.9514 0.832495 30.0139 0.842905 30.0763 0.863726C30.1388 0.884547 30.2012 0.894957 30.2637 0.894957C30.3262 0.894957 30.399 0.853316 30.4823 0.770033C30.5448 0.832495 30.5968 0.915778 30.6385 1.01988C30.6593 1.10317 30.7009 1.17604 30.7634 1.2385C30.8259 1.30096 30.9196 1.30096 31.0445 1.2385C31.1069 1.30096 31.159 1.3426 31.2006 1.36342C31.2631 1.42589 31.3047 1.46753 31.3256 1.48835C31.3672 1.48835 31.4193 1.48835 31.4817 1.48835C31.5442 1.46753 31.6275 1.42589 31.7316 1.36342C31.7316 1.36342 31.7316 1.37384 31.7316 1.39466C31.7732 1.4363 31.8044 1.47794 31.8253 1.51958C31.8669 1.56122 31.9086 1.59245 31.9502 1.61327C32.0127 1.61327 32.0751 1.57163 32.1376 1.48835C32.1584 1.50917 32.1896 1.5404 32.2313 1.58204C32.2729 1.60286 32.3041 1.6341 32.325 1.67574C32.3666 1.71738 32.377 1.76943 32.3562 1.83189C32.377 1.89435 32.4082 1.936 32.4499 1.95682C32.4915 1.97764 32.5436 1.99846 32.606 2.01928C32.6685 2.01928 32.7206 2.0401 32.7622 2.08174C32.8038 2.10256 32.8143 2.15461 32.7934 2.2379C32.9184 2.2379 32.9808 2.26913 32.9808 2.33159C33.0016 2.39405 33.0016 2.46693 32.9808 2.55021C32.96 2.63349 32.9496 2.70637 32.9496 2.76883C32.9704 2.83129 33.0225 2.87293 33.1057 2.89375C33.1682 2.89375 33.2203 2.90416 33.2619 2.92498C33.3244 2.9458 33.3868 2.96663 33.4493 2.98745C33.4909 3.02909 33.543 3.06032 33.6054 3.08114C33.6887 3.10196 33.772 3.09155 33.8553 3.04991C33.9178 3.09155 33.9698 3.1436 34.0114 3.20606C34.0739 3.26853 34.1156 3.3414 34.1364 3.42468C34.178 3.50797 34.2197 3.57043 34.2613 3.61207C34.3238 3.65371 34.4175 3.6433 34.5424 3.58084C34.584 3.62248 34.6153 3.66412 34.6361 3.70576C34.6569 3.7474 34.6673 3.79946 34.6673 3.86192C34.6673 3.9452 34.6777 4.01807 34.6985 4.08054C34.7194 4.12218 34.7714 4.15341 34.8547 4.17423C34.9588 4.17423 35.0525 4.19505 35.1358 4.23669C35.2191 4.27833 35.3127 4.29916 35.4169 4.29916C35.4377 4.3408 35.4481 4.38244 35.4481 4.42408C35.4481 4.4449 35.4377 4.47613 35.4169 4.51777C35.396 4.53859 35.3856 4.55941 35.3856 4.58024C35.3856 4.60106 35.3856 4.62188 35.3856 4.6427C35.4064 4.6427 35.4481 4.65311 35.5105 4.67393L35.3856 4.83008C35.5938 4.95501 35.7812 5.11117 35.9478 5.29855C36.1143 5.46512 36.1664 5.67333 36.1039 5.92318C36.2497 5.92318 36.333 5.944 36.3538 5.98564C36.3954 6.02728 36.4058 6.06892 36.385 6.11056C36.3642 6.1522 36.333 6.20426 36.2913 6.26672C36.2497 6.30836 36.2185 6.35 36.1976 6.39164C36.1976 6.43329 36.2185 6.46452 36.2601 6.48534C36.3226 6.50616 36.4371 6.51657 36.6036 6.51657L36.5724 6.92257C36.739 6.94339 36.8535 7.02668 36.9159 7.17242C36.9992 7.31817 36.9992 7.44309 36.9159 7.5472C36.8951 7.60966 36.8951 7.67212 36.9159 7.73458C36.9368 7.77623 36.968 7.82828 37.0096 7.89074C37.0721 7.93238 37.1033 7.97402 37.1033 8.01566C37.1242 8.05731 37.0929 8.09895 37.0096 8.14059C36.9888 8.16141 36.9784 8.18223 36.9784 8.20305C36.9992 8.20305 37.0096 8.21346 37.0096 8.23428C37.0305 8.23428 37.0409 8.24469 37.0409 8.26551L37.0721 8.23428C37.1137 8.29675 37.1346 8.38003 37.1346 8.48413C37.1554 8.58824 37.1346 8.69234 37.0721 8.79644C37.2178 8.81726 37.322 8.86932 37.3844 8.9526C37.4469 9.01506 37.4989 9.07752 37.5406 9.13999C37.5822 9.22327 37.6239 9.29614 37.6655 9.3586C37.728 9.40025 37.8217 9.43148 37.9466 9.4523C37.9258 9.49394 37.9049 9.54599 37.8841 9.60845C37.8841 9.67092 37.8737 9.72297 37.8529 9.76461C37.8529 9.78543 37.8217 9.79584 37.7592 9.79584C37.8008 9.83748 37.8217 9.88953 37.8217 9.952C37.8425 9.99364 37.8529 10.0353 37.8529 10.0769C37.8737 10.181 37.8945 10.2643 37.9153 10.3268C37.957 10.4517 38.009 10.6079 38.0715 10.7952C38.1756 11.1908 38.3005 11.576 38.4463 11.9508C38.5712 12.0133 38.6337 12.0965 38.6337 12.2006C38.6337 12.2839 38.6024 12.3776 38.54 12.4817C38.4775 12.6066 38.4463 12.7212 38.4463 12.8253C38.5296 12.7836 38.592 12.7836 38.6337 12.8253C38.6961 12.8669 38.7482 12.919 38.7898 12.9814C38.8106 13.0231 38.8315 13.0647 38.8523 13.1063C38.8939 13.1272 38.9356 13.148 38.9772 13.1688C38.9147 13.2104 38.8835 13.2625 38.8835 13.325C38.8835 13.3666 38.8939 13.4187 38.9147 13.4811C38.9356 13.5436 38.946 13.5956 38.946 13.6373C38.9043 13.6581 38.8835 13.6789 38.8835 13.6997C38.8835 13.7206 38.8835 13.731 38.8835 13.731C38.9043 13.731 38.9252 13.731 38.946 13.731C38.9668 13.731 38.9876 13.731 39.0084 13.731C39.0293 13.731 39.0397 13.7414 39.0397 13.7622C39.123 13.9079 39.1542 14.012 39.1334 14.0745C39.1334 14.1162 39.0605 14.1786 38.9147 14.2619C39.0188 14.2827 39.1021 14.3244 39.1646 14.3868C39.2271 14.4285 39.2895 14.4909 39.352 14.5742C39.3936 14.6159 39.4353 14.6575 39.4769 14.6991C39.5185 14.7408 39.5706 14.772 39.6331 14.7928C39.5706 14.8136 39.529 14.8449 39.5081 14.8865C39.5081 14.9073 39.5185 14.9386 39.5394 14.9802C39.5602 15.0219 39.5706 15.0531 39.5706 15.0739C39.5706 15.0947 39.5706 15.1156 39.5706 15.1364C39.6331 15.1572 39.6747 15.2092 39.6955 15.2925C39.7163 15.3758 39.7268 15.4799 39.7268 15.6048C39.7268 15.7089 39.7372 15.8026 39.758 15.8859C39.8829 15.9692 39.9558 16.0733 39.9766 16.1982C40.0182 16.3023 40.0391 16.4273 40.0391 16.573C40.0391 16.6979 40.0599 16.8333 40.1015 16.979C40.1432 17.1039 40.2473 17.1976 40.4138 17.2601C40.3722 17.6557 40.4138 17.9055 40.5388 18.0096C40.6637 18.0929 40.8615 18.1242 41.1322 18.1033C41.0905 18.1658 41.0697 18.2283 41.0697 18.2907C41.0905 18.3324 41.1217 18.3636 41.1634 18.3844C41.205 18.4469 41.2258 18.4989 41.2258 18.5406C41.2467 18.5822 41.2258 18.6447 41.1634 18.728C41.2883 18.957 41.4653 19.2068 41.6943 19.4775C41.9233 19.7274 42.1732 19.8315 42.4439 19.7898C42.7978 20.2062 43.2559 20.4873 43.818 20.6331C44.3802 20.7788 44.9632 20.8725 45.567 20.9141C45.6711 20.935 45.7856 20.9558 45.9105 20.9766C45.9313 20.9558 45.9418 20.9454 45.9418 20.9454C45.9418 20.9454 45.9522 20.9454 45.973 20.9454C45.9938 20.9454 46.0042 20.9454 46.0042 20.9454C46.025 20.9454 46.0355 20.9454 46.0355 20.9454C46.0563 20.9454 46.0667 20.9454 46.0667 20.9454C46.0667 20.9454 46.0667 20.9558 46.0667 20.9766C46.0875 20.9766 46.0979 20.9766 46.0979 20.9766C45.8064 21.0391 45.6815 21.1223 45.7231 21.2265C45.7648 21.3097 45.9001 21.4242 46.1291 21.57C46.2124 21.4451 46.3165 21.4242 46.4415 21.5075C46.5872 21.57 46.7121 21.6637 46.8162 21.7886C46.8995 21.8511 46.962 21.9031 47.0036 21.9448C46.8787 22.0697 46.7225 22.1217 46.5351 22.1009C46.3478 22.0801 46.1396 22.0281 45.9105 21.9448C45.7023 21.8615 45.5045 21.8094 45.3171 21.7886C45.3796 21.6429 45.3692 21.5596 45.2859 21.5388C45.2234 21.4971 45.1193 21.5075 44.9736 21.57C44.8487 21.6325 44.7446 21.7261 44.6613 21.8511C44.5988 21.9552 44.6092 22.0905 44.6925 22.2571C44.7342 22.2987 44.7758 22.3195 44.8174 22.3195C44.8799 22.3195 44.9319 22.3091 44.9736 22.2883C45.0152 22.2675 45.0569 22.2571 45.0985 22.2571C45.1402 22.2571 45.1818 22.2883 45.2234 22.3508C45.2443 22.33 45.2651 22.3195 45.2859 22.3195C45.3275 22.3195 45.3692 22.3091 45.4108 22.2883C45.4525 22.2883 45.4941 22.2883 45.5358 22.2883C45.5774 22.2675 45.6086 22.2363 45.6294 22.1946C46.1083 22.3612 46.6393 22.5382 47.2222 22.7255C48.18 22.9962 48.9712 23.2773 49.5958 23.5688C49.6583 23.6104 49.7103 23.6313 49.752 23.6313C49.7936 23.6313 49.8457 23.6208 49.9081 23.6C49.9289 23.5792 49.9602 23.5688 50.0018 23.5688C50.0435 23.548 50.0851 23.548 50.1267 23.5688L50.0643 23.6C50.1476 23.6625 50.2517 23.7354 50.3766 23.8186C50.5223 23.8811 50.6473 23.9332 50.7514 23.9748H50.7201L50.8451 24.1309C50.8034 24.1309 50.7618 24.1414 50.7201 24.1622C50.6785 24.1622 50.6368 24.1622 50.5952 24.1622C50.6993 24.2246 50.8346 24.2871 51.0012 24.3496C51.1678 24.3912 51.3239 24.4224 51.4697 24.4433C51.6362 24.4433 51.7508 24.412 51.8132 24.3496C51.8132 24.3704 51.8132 24.3808 51.8132 24.3808C51.834 24.3808 51.8549 24.3808 51.8757 24.3808C51.8757 24.36 51.8757 24.36 51.8757 24.3808C51.8965 24.3808 51.9173 24.3808 51.9381 24.3808ZM32.4499 21.0078C32.4915 20.8829 32.4915 20.7476 32.4499 20.6018C32.4291 20.4561 32.3458 20.352 32.2 20.2895C32.3458 20.2271 32.3978 20.1334 32.3562 20.0084C32.3354 19.8835 32.2729 19.769 32.1688 19.6649C32.1272 19.5816 32.0855 19.5087 32.0439 19.4463C32.0022 19.3838 32.0022 19.3213 32.0439 19.2589C32.0439 19.2172 32.0335 19.186 32.0127 19.1652C31.9918 19.1444 31.9606 19.1236 31.919 19.1027C31.8981 19.0819 31.8773 19.0611 31.8565 19.0403C31.8357 18.9986 31.8357 18.9466 31.8565 18.8841C31.7524 18.8425 31.6899 18.7904 31.6691 18.728C31.6691 18.6655 31.6795 18.5926 31.7003 18.5093C31.7212 18.4677 31.7316 18.4261 31.7316 18.3844C31.7316 18.322 31.7212 18.2699 31.7003 18.2283C31.6171 18.2491 31.5442 18.2595 31.4817 18.2595C31.4401 18.2595 31.4089 18.2491 31.388 18.2283C31.3672 18.2074 31.3568 18.1762 31.3568 18.1346C31.336 18.0929 31.3047 18.0409 31.2631 17.9784C31.3256 17.8743 31.3464 17.7806 31.3256 17.6973C31.3047 17.5932 31.2735 17.4891 31.2319 17.385C31.1902 17.3017 31.159 17.2185 31.1382 17.1352C31.1382 17.0519 31.1486 16.9686 31.1694 16.8853C31.1069 16.8437 31.0757 16.802 31.0757 16.7604C31.0757 16.6979 31.0965 16.6459 31.1382 16.6042C31.1798 16.5626 31.2006 16.521 31.2006 16.4793C31.2215 16.4377 31.2006 16.3856 31.1382 16.3232C31.0757 16.3232 31.0237 16.3023 30.982 16.2607C30.9612 16.1982 30.9508 16.1462 30.9508 16.1045C30.93 16.0421 30.8987 15.99 30.8571 15.9484C30.8363 15.9067 30.7842 15.8859 30.7009 15.8859C30.7218 15.8026 30.7114 15.7298 30.6697 15.6673C30.6489 15.6048 30.6177 15.5424 30.576 15.4799C30.5344 15.4175 30.5031 15.355 30.4823 15.2925C30.4615 15.2092 30.4823 15.126 30.5448 15.0427C30.524 15.0427 30.5136 15.0427 30.5136 15.0427C30.4719 15.0219 30.4303 14.9906 30.3886 14.949C30.347 14.9073 30.3262 14.8553 30.3262 14.7928C30.2429 14.8136 30.1596 14.8241 30.0763 14.8241C30.0139 14.8241 29.9618 14.8032 29.9202 14.7616C29.941 14.6575 29.9306 14.595 29.8889 14.5742C29.8473 14.5534 29.7952 14.5534 29.7328 14.5742C29.6911 14.5742 29.6495 14.5742 29.6079 14.5742C29.5662 14.5742 29.535 14.5638 29.5142 14.543C29.4517 14.4181 29.3684 14.366 29.2643 14.3868C29.181 14.3868 29.1082 14.4181 29.0457 14.4805C29.0873 14.6054 29.0561 14.6887 28.952 14.7304C28.8479 14.772 28.7334 14.7928 28.6085 14.7928C28.5252 14.8136 28.4627 14.8345 28.4211 14.8553C28.4002 14.8553 28.3898 14.8553 28.3898 14.8553C28.3898 14.8553 28.4002 14.8657 28.4211 14.8865C28.4419 14.8865 28.4627 14.8969 28.4835 14.9178C28.5044 14.9178 28.5148 14.9282 28.5148 14.949C28.5148 14.9698 28.5044 14.9906 28.4835 15.0114C28.4627 15.0114 28.4211 15.0219 28.3586 15.0427C28.3586 15.2717 28.2961 15.4175 28.1712 15.4799C28.0671 15.5216 27.9422 15.5528 27.7964 15.5736C27.6507 15.5736 27.5154 15.5944 27.3904 15.6361C27.2863 15.6777 27.2135 15.7818 27.1718 15.9484L27.4217 16.1982C27.2551 16.2607 27.1302 16.344 27.0469 16.4481C26.9844 16.5522 27.0365 16.6667 27.2031 16.7916C27.1822 16.8749 27.151 16.9165 27.1094 16.9165C27.0885 16.9165 27.0573 16.9165 27.0157 16.9165C26.974 16.8957 26.9324 16.8853 26.8907 16.8853C26.8491 16.8853 26.8179 16.9061 26.797 16.9478C26.7762 16.9686 26.7554 16.9998 26.7346 17.0415C26.7346 17.0623 26.7346 17.0831 26.7346 17.1039C26.7346 17.1456 26.7242 17.1872 26.7034 17.2289C26.7034 17.2705 26.6825 17.3017 26.6409 17.3226C26.5784 17.3434 26.5264 17.3642 26.4847 17.385C26.4639 17.385 26.4535 17.3954 26.4535 17.4162C26.4743 17.4371 26.4847 17.4683 26.4847 17.5099C26.5056 17.5516 26.516 17.6036 26.516 17.6661C26.5368 17.7077 26.5264 17.7494 26.4847 17.791C26.339 17.8327 26.2453 17.8951 26.2037 17.9784C26.1828 18.0617 26.1828 18.1554 26.2037 18.2595C26.2245 18.3844 26.2141 18.4989 26.1724 18.603C25.985 18.603 25.8705 18.6759 25.8289 18.8217C25.8081 18.9466 25.8081 19.0819 25.8289 19.2277C25.8497 19.3942 25.8393 19.5296 25.7977 19.6337C25.756 19.7378 25.6415 19.769 25.4541 19.7274C25.4957 19.769 25.527 19.8106 25.5478 19.8523C25.5478 19.8731 25.5582 19.8939 25.579 19.9147C25.5999 19.9147 25.6415 19.9147 25.704 19.9147C25.8913 20.1646 26.1412 20.3207 26.4535 20.3832C26.7866 20.4249 27.1198 20.4353 27.4529 20.4144C27.8485 20.3936 28.2025 20.4249 28.5148 20.5081C28.5772 20.4665 28.6397 20.4457 28.7021 20.4457C28.7438 20.4457 28.7854 20.4353 28.8271 20.4144C28.8687 20.3936 28.8895 20.3416 28.8895 20.2583C29.181 20.3624 29.4933 20.3728 29.8265 20.2895C29.993 20.2687 30.1596 20.2583 30.3262 20.2583C30.5136 20.2375 30.6905 20.2687 30.8571 20.352C30.6489 20.4353 30.4303 20.4665 30.2012 20.4457C30.0763 20.4457 29.9514 20.4561 29.8265 20.4769C29.7015 20.4977 29.5974 20.5498 29.5142 20.6331C29.7432 20.6122 30.0347 20.6331 30.3886 20.6955C30.7634 20.758 31.0861 20.8413 31.3568 20.9454C31.6483 21.0287 31.7836 21.1119 31.7628 21.1952C31.7628 21.2785 31.5025 21.3514 30.982 21.4138C31.0445 21.4971 31.1174 21.5492 31.2006 21.57C31.3047 21.5908 31.4193 21.6012 31.5442 21.6012C31.7108 21.5804 31.8773 21.6012 32.0439 21.6637C32.0647 21.622 32.0959 21.6012 32.1376 21.6012C32.1792 21.5804 32.2209 21.5804 32.2625 21.6012C32.3041 21.6012 32.3354 21.6012 32.3562 21.6012L32.2 21.1952L32.4811 21.0703L32.4499 21.0078Z" fill="white"/>
</svg>
