<?xml version="1.0" encoding="UTF-8"?>
<svg id="Layer_1" data-name="Layer 1" xmlns="http://www.w3.org/2000/svg" viewBox="0 0 1351.92 1372.71">
  <defs>
    <style>
      .cls-1 {
        fill: #fff;
        stroke-width: 0px;
      }
    </style>
  </defs>
  <path class="cls-1" d="M651.29,699.65c-2.21,0-4-1.79-4-4,0-26.67,21.69-48.36,48.36-48.36,2.21,0,4,1.79,4,4s-1.79,4-4,4c-22.25,0-40.36,18.1-40.36,40.36,0,2.21-1.79,4-4,4Z"/>
  <path class="cls-1" d="M732.32,728.02c-.86,0-1.73-.28-2.46-.85-1.74-1.36-2.05-3.87-.69-5.61,6.86-8.78,9.89-19.71,8.54-30.78-1.36-11.06-6.94-20.94-15.73-27.8-1.74-1.36-2.05-3.87-.69-5.61,1.36-1.74,3.87-2.05,5.61-.69,10.47,8.18,17.12,19.94,18.74,33.13,1.62,13.18-1.99,26.21-10.17,36.68-.79,1.01-1.97,1.54-3.15,1.54Z"/>
  <path class="cls-1" d="M695.71,747.39c-22.93,0-43.84-15.55-49.63-38.78-.53-2.14.77-4.31,2.91-4.85,2.14-.54,4.31.77,4.85,2.91,2.79,11.18,9.76,20.61,19.64,26.55,9.88,5.94,21.48,7.67,32.66,4.88,2.15-.54,4.31.77,4.85,2.91.53,2.14-.77,4.31-2.91,4.85-4.14,1.03-8.29,1.52-12.37,1.52Z"/>
  <path class="cls-1" d="M651.36,679.77c-.54,0-1.1-.11-1.62-.35-2.02-.9-2.93-3.26-2.03-5.28,11.8-26.5,42.95-38.46,69.45-26.66,2.02.9,2.93,3.26,2.03,5.28-.9,2.02-3.26,2.93-5.28,2.03-22.47-10-48.89.14-58.89,22.61-.66,1.49-2.12,2.37-3.66,2.37Z"/>
  <path class="cls-1" d="M719.83,744.27c-1.43,0-2.82-.77-3.54-2.12-1.04-1.95-.3-4.37,1.65-5.41,22.45-11.94,31-39.91,19.06-62.36-1.04-1.95-.3-4.37,1.65-5.41,1.95-1.04,4.37-.3,5.41,1.65,14.01,26.34,3.97,59.17-22.37,73.18-.6.32-1.24.47-1.87.47Z"/>
  <path class="cls-1" d="M686.6,751.03c-.23,0-.46-.02-.7-.06-14.64-2.58-27.4-10.71-35.93-22.89-8.53-12.18-11.8-26.95-9.22-41.59.38-2.18,2.46-3.62,4.63-3.24,2.18.38,3.63,2.46,3.24,4.63-2.21,12.54.59,25.18,7.89,35.61,7.3,10.43,18.23,17.39,30.76,19.6,2.18.38,3.63,2.46,3.24,4.63-.34,1.94-2.03,3.31-3.93,3.31Z"/>
  <path class="cls-1" d="M735.51,663.84c-1.09,0-2.18-.45-2.97-1.32-8.8-9.78-20.89-15.54-34.03-16.23-13.14-.69-25.76,3.78-35.54,12.58-1.64,1.48-4.17,1.35-5.65-.3-1.48-1.64-1.35-4.17.3-5.65,11.36-10.23,26.03-15.43,41.31-14.63,15.27.8,29.32,7.5,39.55,18.87,1.48,1.64,1.35,4.17-.3,5.65-.76.69-1.72,1.03-2.68,1.03Z"/>
  <path class="cls-1" d="M700.08,754.97c-2.08,0-3.84-1.61-3.99-3.72-.15-2.2,1.51-4.11,3.71-4.27,28-1.96,49.18-26.33,47.23-54.33-.15-2.2,1.51-4.12,3.71-4.27,2.21-.16,4.11,1.51,4.27,3.71,2.27,32.4-22.25,60.6-54.65,62.87-.09,0-.19,0-.28,0Z"/>
  <path class="cls-1" d="M663.8,746.92c-.77,0-1.55-.22-2.23-.68-27.7-18.69-35.04-56.42-16.35-84.13,1.24-1.83,3.72-2.31,5.55-1.08,1.83,1.24,2.31,3.72,1.08,5.55-16.22,24.05-9.85,56.8,14.19,73.02,1.83,1.24,2.31,3.72,1.08,5.55-.77,1.15-2.04,1.76-3.32,1.76Z"/>
  <path class="cls-1" d="M751.62,681.45c-1.69,0-3.25-1.07-3.8-2.77-4.49-13.81-14.08-25.04-27.02-31.63-12.93-6.59-27.66-7.75-41.47-3.26-2.1.68-4.36-.47-5.04-2.57-.68-2.1.47-4.36,2.57-5.04,15.84-5.15,32.73-3.82,47.57,3.74,14.84,7.56,25.85,20.45,30.99,36.29.68,2.1-.47,4.36-2.57,5.04-.41.13-.83.2-1.24.2Z"/>
  <path class="cls-1" d="M696.06,760.52c-7.27,0-14.66-1.25-21.88-3.87-2.08-.76-3.15-3.05-2.39-5.13.76-2.08,3.05-3.15,5.13-2.39,29.1,10.59,61.38-4.47,71.97-33.56.76-2.08,3.05-3.15,5.13-2.39,2.08.76,3.15,3.05,2.39,5.13-9.47,26.02-34.14,42.22-60.35,42.22Z"/>
  <path class="cls-1" d="M642.83,732.66c-1.33,0-2.64-.67-3.4-1.88-9.34-14.95-12.31-32.65-8.34-49.83,3.97-17.18,14.39-31.79,29.34-41.13,1.87-1.17,4.34-.6,5.51,1.27,1.17,1.87.6,4.34-1.27,5.51-13.14,8.21-22.3,21.05-25.79,36.15s-.88,30.65,7.33,43.79c1.17,1.87.6,4.34-1.27,5.51-.66.41-1.39.61-2.12.61Z"/>
  <path class="cls-1" d="M759.91,706.26c-.14,0-.28,0-.42-.02-2.2-.23-3.79-2.2-3.56-4.4,3.45-32.87-20.47-62.42-53.34-65.87-2.2-.23-3.79-2.2-3.56-4.4s2.2-3.79,4.4-3.56c37.25,3.92,64.38,37.41,60.46,74.66-.22,2.06-1.95,3.58-3.97,3.58Z"/>
  <path class="cls-1" d="M695.91,766.33c-17.49,0-35-6.5-48.55-19.59-1.59-1.53-1.63-4.07-.1-5.66,1.53-1.59,4.07-1.63,5.66-.1,24.56,23.71,63.83,23.03,87.54-1.53,1.53-1.59,4.07-1.63,5.66-.1,1.59,1.53,1.63,4.07.1,5.66-13.69,14.18-31.99,21.31-50.3,21.31Z"/>
  <path class="cls-1" d="M628.17,709.03c-1.96,0-3.68-1.44-3.96-3.44-2.67-19.03,2.22-37.96,13.79-53.31,11.57-15.35,28.42-25.27,47.45-27.95,2.19-.31,4.21,1.22,4.52,3.4.31,2.19-1.22,4.21-3.4,4.52-16.92,2.38-31.89,11.2-42.17,24.84-10.28,13.64-14.63,30.47-12.25,47.39.31,2.19-1.22,4.21-3.4,4.52-.19.03-.38.04-.56.04Z"/>
  <path class="cls-1" d="M757.13,734.79c-.68,0-1.37-.17-2-.54-1.91-1.1-2.57-3.55-1.46-5.46,18.21-31.54,7.36-72.02-24.18-90.23-1.91-1.1-2.57-3.55-1.46-5.46,1.1-1.91,3.55-2.57,5.46-1.46,35.36,20.42,47.52,65.79,27.1,101.15-.74,1.28-2.09,2-3.47,2Z"/>
  <path class="cls-1" d="M695.67,772.71c-10.1,0-20.19-2.03-29.77-6.1-18.74-7.95-33.26-22.73-40.89-41.61-.83-2.05.16-4.38,2.21-5.21,2.05-.83,4.38.16,5.21,2.21,14.09,34.88,53.93,51.79,88.8,37.7,2.05-.83,4.38.16,5.21,2.21.83,2.05-.16,4.38-2.21,5.21-9.23,3.73-18.9,5.59-28.56,5.59Z"/>
  <path class="cls-1" d="M624.05,678.85c-.37,0-.74-.05-1.1-.16-2.12-.61-3.35-2.82-2.74-4.95,11.92-41.58,55.45-65.71,97.04-53.79,2.12.61,3.35,2.82,2.74,4.95s-2.82,3.35-4.95,2.74c-37.34-10.71-76.43,10.96-87.14,48.3-.5,1.75-2.1,2.9-3.84,2.9Z"/>
  <path class="cls-1" d="M741.65,762.1c-1.24,0-2.46-.57-3.24-1.65-1.3-1.79-.9-4.29.88-5.59,15.72-11.42,26.05-28.28,29.09-47.48s-1.58-38.42-13-54.14c-1.3-1.79-.9-4.29.88-5.59,1.79-1.3,4.29-.9,5.59.88,12.68,17.45,17.8,38.79,14.43,60.1-3.37,21.3-14.84,40.02-32.29,52.7-.71.52-1.53.76-2.35.76Z"/>
  <path class="cls-1" d="M692.68,779.43s-.09,0-.14,0c-22.19-.77-42.75-10.14-57.89-26.38s-23.06-37.4-22.28-59.59c.08-2.21,1.92-3.93,4.14-3.86,2.21.08,3.94,1.93,3.86,4.14-.7,20.05,6.45,39.18,20.14,53.86,13.69,14.68,32.27,23.14,52.32,23.84,2.21.08,3.94,1.93,3.86,4.14-.08,2.16-1.85,3.86-4,3.86Z"/>
  <path class="cls-1" d="M633.36,646.81c-.91,0-1.82-.31-2.57-.94-1.69-1.42-1.91-3.94-.49-5.64,30.33-36.15,84.41-40.88,120.56-10.55,1.69,1.42,1.91,3.94.49,5.64-1.42,1.69-3.94,1.91-5.64.49-32.77-27.49-81.79-23.21-109.29,9.56-.79.94-1.92,1.43-3.07,1.43Z"/>
  <path class="cls-1" d="M713.97,782.55c-1.85,0-3.51-1.29-3.91-3.17-.46-2.16.92-4.28,3.08-4.74,20.93-4.45,38.87-16.78,50.52-34.72s15.62-39.35,11.17-60.28c-.46-2.16.92-4.28,3.08-4.74,2.16-.46,4.28.92,4.74,3.08,4.89,23.02.53,46.56-12.29,66.3-12.82,19.74-32.55,33.3-55.57,38.19-.28.06-.56.09-.84.09Z"/>
  <path class="cls-1" d="M657.23,778.07c-.59,0-1.19-.13-1.75-.41-21.77-10.62-38.11-29.08-46-51.99-7.89-22.91-6.38-47.51,4.24-69.29.97-1.99,3.36-2.81,5.35-1.84,1.99.97,2.81,3.36,1.84,5.35-9.68,19.85-11.06,42.29-3.86,63.18,7.19,20.89,22.09,37.72,41.94,47.4,1.99.97,2.81,3.36,1.84,5.35-.69,1.42-2.12,2.25-3.6,2.25Z"/>
  <path class="cls-1" d="M776.49,660.03c-1.48,0-2.9-.83-3.6-2.25-20.64-42.31-71.85-59.95-114.17-39.31-1.99.97-4.38.14-5.35-1.84-.97-1.99-.14-4.38,1.84-5.35,46.28-22.57,102.29-3.28,124.86,42.99.97,1.99.14,4.38-1.84,5.35-.56.28-1.16.41-1.75.41Z"/>
  <path class="cls-1" d="M696.52,792.72c-6.71,0-13.47-.71-20.18-2.13-2.16-.46-3.54-2.58-3.08-4.74.46-2.16,2.58-3.54,4.74-3.08,23.03,4.89,46.59.53,66.33-12.29,19.75-12.82,33.32-32.57,38.21-55.6.46-2.16,2.58-3.54,4.74-3.08,2.16.46,3.54,2.58,3.08,4.74-5.34,25.12-20.14,46.66-41.68,60.64-15.78,10.25-33.79,15.54-52.17,15.54Z"/>
  <path class="cls-1" d="M622.36,760.9c-1.14,0-2.27-.49-3.07-1.43-17-20.26-25.09-45.92-22.78-72.26,2.3-26.34,14.73-50.21,34.98-67.21,1.69-1.42,4.22-1.2,5.64.49,1.42,1.69,1.2,4.22-.49,5.64-18.62,15.62-30.04,37.56-32.16,61.77-2.12,24.21,5.32,47.8,20.94,66.42,1.42,1.69,1.2,4.22-.49,5.64-.75.63-1.66.94-2.57.94Z"/>
  <path class="cls-1" d="M794.33,695.9c-2.15,0-3.92-1.7-4-3.86-.88-25.07-11.46-48.31-29.81-65.42-18.35-17.11-42.26-26.05-67.34-25.18-2.22.06-4.06-1.65-4.14-3.86-.08-2.21,1.65-4.06,3.86-4.14,27.21-.95,53.16,8.75,73.07,27.32,19.91,18.57,31.4,43.78,32.35,70.99.08,2.21-1.65,4.06-3.86,4.14-.05,0-.1,0-.14,0Z"/>
  <path class="cls-1" d="M695.9,801.65c-21.39,0-42.97-6.5-61.56-20.01-1.79-1.3-2.18-3.8-.88-5.59,1.3-1.79,3.8-2.18,5.59-.88,43.25,31.42,104.01,21.8,135.44-21.45,1.3-1.79,3.8-2.18,5.59-.88,1.79,1.3,2.18,3.8.88,5.59-20.51,28.23-52.57,43.23-85.05,43.23Z"/>
  <path class="cls-1" d="M595.11,728.19c-1.74,0-3.34-1.14-3.84-2.9-7.96-27.75-4.63-56.94,9.36-82.19,14-25.25,36.99-43.54,64.74-51.5,2.12-.61,4.34.62,4.95,2.74s-.62,4.34-2.74,4.95c-25.7,7.37-46.99,24.3-59.95,47.68-12.96,23.38-16.04,50.41-8.67,76.11.61,2.12-.62,4.34-2.74,4.95-.37.11-.74.16-1.1.16Z"/>
  <path class="cls-1" d="M796.21,739.76c-.5,0-1.01-.09-1.5-.29-2.05-.83-3.04-3.16-2.21-5.21,10.34-25.58,10.09-53.66-.69-79.06-10.78-25.4-30.81-45.08-56.39-55.42-2.05-.83-3.04-3.16-2.21-5.21.83-2.05,3.16-3.04,5.21-2.21,27.56,11.14,49.14,32.34,60.76,59.71,11.62,27.37,11.88,57.62.74,85.18-.63,1.56-2.13,2.5-3.71,2.5Z"/>
  <path class="cls-1" d="M695.87,811.39c-39.65,0-78.25-20.56-99.46-57.29-1.1-1.91-.45-4.36,1.46-5.46,1.91-1.11,4.36-.45,5.46,1.46,29.4,50.91,94.73,68.42,145.65,39.03,1.91-1.11,4.36-.45,5.46,1.46,1.1,1.91.45,4.36-1.46,5.46-18,10.39-37.69,15.33-57.12,15.33Z"/>
  <path class="cls-1" d="M582.42,683.29c-.19,0-.37-.01-.56-.04-2.19-.31-3.71-2.33-3.4-4.52,9.06-64.46,68.86-109.53,133.32-100.46,2.19.31,3.71,2.33,3.4,4.52-.31,2.19-2.32,3.72-4.52,3.4-29.11-4.09-58.06,3.4-81.54,21.09-23.47,17.69-38.66,43.46-42.75,72.57-.28,2-1.99,3.44-3.96,3.44Z"/>
  <path class="cls-1" d="M778.55,784.5c-1.05,0-2.09-.41-2.88-1.22-1.53-1.59-1.49-4.12.1-5.66,21.82-21.07,34.13-49.38,34.66-79.71.53-30.33-10.78-59.05-31.86-80.87-1.53-1.59-1.49-4.12.1-5.66,1.59-1.53,4.12-1.49,5.66.1,22.56,23.36,34.67,54.1,34.1,86.57s-13.74,62.77-37.1,85.33c-.78.75-1.78,1.12-2.78,1.12Z"/>
  <path class="cls-1" d="M695.05,821.9c-28.56,0-56.05-9.69-78.56-27.92-25.99-21.05-42.23-50.96-45.73-84.22-.23-2.2,1.36-4.17,3.56-4.4,2.2-.23,4.17,1.36,4.4,3.56,3.27,31.13,18.47,59.13,42.8,78.83,24.33,19.7,54.87,28.75,86.01,25.48,2.2-.24,4.17,1.36,4.4,3.56.23,2.2-1.36,4.17-3.56,4.4-4.46.47-8.9.7-13.32.7Z"/>
  <path class="cls-1" d="M589.71,632.69c-.72,0-1.46-.2-2.12-.61-1.87-1.17-2.44-3.64-1.27-5.51,37.68-60.3,117.39-78.7,177.69-41.02,1.87,1.17,2.44,3.64,1.27,5.51-1.17,1.87-3.64,2.44-5.51,1.27-56.56-35.34-131.33-18.08-166.67,38.48-.76,1.21-2.06,1.88-3.4,1.88Z"/>
  <path class="cls-1" d="M740.93,821.41c-1.63,0-3.17-1.01-3.76-2.63-.76-2.08.31-4.37,2.39-5.13,64.67-23.54,98.14-95.31,74.6-159.98-.76-2.08.31-4.37,2.39-5.13,2.08-.76,4.37.31,5.13,2.39,25.05,68.82-10.56,145.19-79.38,170.23-.45.16-.91.24-1.37.24Z"/>
  <path class="cls-1" d="M653.9,826.71c-.41,0-.83-.06-1.24-.2-34.75-11.29-63.03-35.44-79.62-68s-19.51-69.63-8.21-104.38c.68-2.1,2.94-3.25,5.04-2.57,2.1.68,3.25,2.94,2.57,5.04-10.63,32.72-7.88,67.62,7.73,98.28,15.62,30.65,42.24,53.39,74.96,64.02,2.1.68,3.25,2.94,2.57,5.04-.55,1.69-2.12,2.77-3.8,2.77Z"/>
  <path class="cls-1" d="M809.63,622.25c-1.28,0-2.55-.62-3.32-1.76-40.98-60.76-123.75-76.85-184.51-35.87-1.83,1.24-4.32.75-5.55-1.08-1.23-1.83-.75-4.32,1.08-5.55,64.41-43.45,152.17-26.39,195.61,38.02,1.24,1.83.75,4.32-1.08,5.55-.69.46-1.46.68-2.23.68Z"/>
  <path class="cls-1" d="M696.77,841.93c-3.39,0-6.79-.12-10.23-.36-2.2-.15-3.87-2.07-3.71-4.27.15-2.2,2.07-3.88,4.27-3.71,36.54,2.55,71.89-9.27,99.54-33.31,27.65-24.03,44.28-57.39,46.84-93.94.15-2.2,2.07-3.88,4.27-3.71,2.2.15,3.87,2.07,3.71,4.27-5.34,76.41-69.23,135.02-144.69,135.02Z"/>
  <path class="cls-1" d="M597.35,808.11c-.95,0-1.91-.34-2.68-1.03-61.26-55.16-66.23-149.88-11.07-211.15,1.48-1.64,4.01-1.77,5.65-.3,1.64,1.48,1.77,4.01.3,5.65-52.21,57.99-47.51,147.64,10.47,199.85,1.64,1.48,1.77,4.01.3,5.65-.79.88-1.88,1.32-2.97,1.32Z"/>
  <path class="cls-1" d="M844.34,672.85c-1.9,0-3.59-1.37-3.93-3.31-13.98-79.29-89.86-132.42-169.15-118.44-2.18.38-4.25-1.07-4.63-3.25-.38-2.18,1.07-4.25,3.25-4.63,83.63-14.74,163.67,41.3,178.41,124.93.38,2.18-1.07,4.25-3.25,4.63-.23.04-.47.06-.7.06Z"/>
  <path class="cls-1" d="M696.08,855.85c-25.62,0-51.01-6.28-74.28-18.65-1.95-1.04-2.69-3.46-1.65-5.41,1.04-1.95,3.46-2.69,5.41-1.65,35.53,18.89,76.29,22.82,114.77,11.05,38.48-11.77,70.08-37.81,88.97-73.34,1.04-1.95,3.46-2.69,5.41-1.65,1.95,1.04,2.69,3.46,1.65,5.41-19.89,37.42-53.17,64.85-93.69,77.24-15.33,4.69-31,7.01-46.58,7.01Z"/>
  <path class="cls-1" d="M549.04,764.29c-1.53,0-2.99-.88-3.66-2.37-36.65-82.33.5-179.12,82.83-215.78,2.02-.9,4.38,0,5.28,2.03s0,4.38-2.03,5.28c-78.3,34.86-113.63,126.92-78.77,205.21.9,2.02,0,4.38-2.03,5.28-.53.24-1.08.35-1.62.35Z"/>
  <path class="cls-1" d="M856.55,738.98c-.32,0-.65-.04-.97-.12-2.14-.53-3.45-2.71-2.91-4.85,10.36-41.56,3.92-84.67-18.14-121.39s-57.1-62.64-98.66-73.01c-2.14-.53-3.45-2.71-2.91-4.85s2.7-3.45,4.85-2.91c90.08,22.46,145.09,114.01,122.63,204.09-.45,1.82-2.08,3.03-3.88,3.03Z"/>
  <path class="cls-1" d="M696.09,870.77c-7.13,0-14.3-.44-21.49-1.32-45.98-5.65-87.02-28.86-115.54-65.37-1.36-1.74-1.05-4.25.69-5.61,1.74-1.36,4.25-1.05,5.61.69,27.21,34.82,66.35,56.97,110.21,62.35,43.86,5.38,87.2-6.63,122.02-33.84,1.74-1.36,4.25-1.05,5.61.69,1.36,1.74,1.05,4.25-.69,5.61-30.8,24.06-67.96,36.8-106.43,36.8Z"/>
  <path class="cls-1" d="M520.21,698.89c-2.21,0-4-1.79-4-4,0-98.53,80.16-178.69,178.69-178.69,2.21,0,4,1.79,4,4s-1.79,4-4,4c-94.12,0-170.69,76.57-170.69,170.69,0,2.21-1.79,4-4,4Z"/>
  <path class="cls-1" d="M839.29,810.6c-.86,0-1.73-.28-2.46-.85-1.74-1.36-2.05-3.87-.69-5.61,28.96-37.06,41.75-83.19,36.02-129.87s-29.3-88.34-66.37-117.3c-1.74-1.36-2.05-3.87-.69-5.61,1.36-1.74,3.87-2.05,5.61-.69,38.75,30.27,63.39,73.82,69.38,122.63,5.99,48.81-7.38,97.02-37.65,135.77-.79,1.01-1.97,1.54-3.15,1.54Z"/>
  <path class="cls-1" d="M695.14,886.9c-85.02,0-162.56-57.67-184.04-143.8-.53-2.14.77-4.31,2.91-4.85,2.14-.53,4.31.77,4.85,2.91,24.23,97.19,123.02,156.54,220.21,132.32,2.14-.53,4.31.77,4.85,2.91.53,2.14-.77,4.31-2.91,4.85-15.34,3.82-30.73,5.66-45.87,5.66Z"/>
  <path class="cls-1" d="M520.49,620.59c-.54,0-1.1-.11-1.62-.35-2.02-.9-2.93-3.26-2.03-5.28,21.23-47.68,59.76-84.24,108.48-102.95,48.73-18.7,101.82-17.31,149.5,3.91,2.02.9,2.93,3.26,2.03,5.28s-3.26,2.93-5.28,2.03c-45.73-20.36-96.65-21.69-143.38-3.75-46.73,17.94-83.68,53-104.04,98.73-.66,1.49-2.12,2.37-3.66,2.37Z"/>
  <path class="cls-1" d="M790.1,874.61c-1.43,0-2.82-.77-3.54-2.12-1.04-1.95-.3-4.37,1.65-5.41,45.59-24.24,79.02-64.79,94.12-114.17,15.1-49.38,10.06-101.69-14.18-147.28-1.04-1.95-.3-4.37,1.65-5.41,1.95-1.04,4.37-.3,5.41,1.65,25.25,47.48,30.49,101.95,14.77,153.38-15.72,51.42-50.53,93.65-98.01,118.9-.6.32-1.24.47-1.87.47Z"/>
  <path class="cls-1" d="M659.22,901.2c-.23,0-.46-.02-.7-.06-54.56-9.62-102.11-39.91-133.89-85.3-31.78-45.39-43.98-100.43-34.36-154.99.38-2.18,2.46-3.63,4.63-3.24,2.18.38,3.63,2.46,3.24,4.63-9.25,52.46,2.48,105.38,33.04,149.01,30.55,43.63,76.27,72.76,128.73,82.01,2.18.38,3.63,2.46,3.24,4.63-.34,1.94-2.03,3.31-3.93,3.31Z"/>
  <path class="cls-1" d="M851.85,557.86c-1.09,0-2.18-.45-2.97-1.32-36.77-40.83-87.24-64.91-142.11-67.78-54.87-2.88-107.58,15.79-148.42,52.56-1.64,1.48-4.17,1.35-5.65-.3-1.48-1.64-1.35-4.17.3-5.65,42.42-38.2,97.17-57.6,154.19-54.6,57.01,2.99,109.44,28,147.64,70.42,1.48,1.64,1.35,4.17-.3,5.65-.76.69-1.72,1.03-2.67,1.03Z"/>
  <path class="cls-1" d="M712.33,916.75c-2.08,0-3.84-1.61-3.99-3.72-.15-2.2,1.51-4.11,3.71-4.27,56.54-3.95,108.16-29.69,145.35-72.47,37.19-42.78,55.49-97.48,51.53-154.02-.15-2.2,1.51-4.11,3.71-4.27,2.2-.16,4.11,1.51,4.27,3.71,4.1,58.67-14.89,115.43-53.48,159.82-38.59,44.39-92.15,71.1-150.83,75.2-.09,0-.19,0-.28,0Z"/>
  <path class="cls-1" d="M569.47,885.04c-.77,0-1.55-.22-2.23-.68-50.24-33.89-84.28-85.32-95.84-144.81-11.56-59.49.73-119.92,34.62-170.17,1.24-1.83,3.72-2.31,5.55-1.08,1.83,1.23,2.31,3.72,1.08,5.55-67.49,100.06-40.99,236.37,59.07,303.87,1.83,1.23,2.31,3.72,1.08,5.55-.77,1.15-2.04,1.76-3.32,1.76Z"/>
  <path class="cls-1" d="M915.3,627.22c-1.69,0-3.25-1.07-3.8-2.77-38.47-118.4-166.1-183.43-284.5-144.96-2.1.68-4.36-.47-5.04-2.57-.68-2.1.47-4.36,2.57-5.04,59.39-19.3,122.74-14.31,178.38,14.04,55.64,28.35,96.91,76.67,116.2,136.06.68,2.1-.47,4.36-2.57,5.04-.41.13-.83.2-1.24.2Z"/>
  <path class="cls-1" d="M696.88,938.69c-27.79,0-55.65-4.87-82.53-14.66-2.08-.76-3.15-3.05-2.39-5.13.75-2.08,3.05-3.15,5.13-2.39,58.45,21.27,121.7,18.52,178.07-7.77,56.38-26.29,99.14-72.96,120.42-131.42.76-2.08,3.05-3.15,5.13-2.39,2.08.76,3.15,3.05,2.39,5.13-22.01,60.46-66.24,108.74-124.56,135.93-32.38,15.1-66.96,22.7-101.66,22.7Z"/>
  <path class="cls-1" d="M486.85,828.87c-1.33,0-2.64-.67-3.4-1.88-35.13-56.23-46.27-122.77-31.35-187.37,14.91-64.6,54.09-119.53,110.32-154.66,1.87-1.17,4.34-.6,5.51,1.27,1.17,1.87.6,4.34-1.27,5.51-112.33,70.19-146.61,218.68-76.42,331.01,1.17,1.87.6,4.34-1.27,5.51-.66.41-1.39.61-2.12.61Z"/>
  <path class="cls-1" d="M947.91,724.92c-.14,0-.28,0-.42-.02-2.2-.23-3.79-2.2-3.56-4.4,6.92-65.82-12.21-130.39-53.86-181.82-41.65-51.43-100.83-83.57-166.65-90.48-2.2-.23-3.79-2.2-3.56-4.4s2.2-3.79,4.4-3.56c67.94,7.14,129.04,40.31,172.03,93.41,42.99,53.09,62.74,119.75,55.6,187.69-.22,2.06-1.95,3.58-3.97,3.58Z"/>
  <path class="cls-1" d="M695.82,961.6c-68.65,0-133.45-26.16-182.96-73.97-1.59-1.53-1.63-4.07-.1-5.66,1.53-1.59,4.07-1.63,5.66-.1,49.1,47.42,113.72,72.86,181.98,71.69,68.25-1.19,131.95-28.89,179.37-77.99,1.53-1.59,4.07-1.63,5.66-.1,1.59,1.53,1.63,4.07.1,5.66-48.9,50.64-114.6,79.21-184.99,80.43-1.57.03-3.15.04-4.72.04Z"/>
  <path class="cls-1" d="M429.17,735.83c-1.96,0-3.68-1.44-3.96-3.44-10.1-71.84,8.39-143.3,52.04-201.24,43.66-57.93,107.26-95.4,179.1-105.5,2.19-.31,4.21,1.22,4.52,3.4.31,2.19-1.22,4.21-3.4,4.52-143.92,20.23-244.56,153.77-224.33,297.7.31,2.19-1.22,4.21-3.4,4.52-.19.03-.38.04-.56.04Z"/>
  <path class="cls-1" d="M937,837.25c-.68,0-1.37-.17-2-.54-1.91-1.1-2.57-3.55-1.46-5.46,36.31-62.89,45.95-136.15,27.16-206.29-18.79-70.14-63.78-128.77-126.67-165.07-1.91-1.1-2.57-3.55-1.46-5.46,1.1-1.91,3.55-2.57,5.46-1.46,64.74,37.38,111.05,97.73,130.39,169.93,19.35,72.21,9.42,147.62-27.96,212.36-.74,1.28-2.09,2-3.47,2Z"/>
  <path class="cls-1" d="M694.96,986.61c-38.22,0-76.41-7.7-112.65-23.08-70.91-30.1-125.85-86.01-154.71-157.43-.83-2.05.16-4.38,2.21-5.21,2.05-.83,4.38.16,5.21,2.21,57.92,143.35,221.66,212.85,365.01,154.94,2.05-.83,4.38.16,5.21,2.21.83,2.05-.16,4.38-2.21,5.21-34.92,14.11-71.51,21.16-108.07,21.16Z"/>
  <path class="cls-1" d="M412.92,616.99c-.37,0-.74-.05-1.1-.16-2.12-.61-3.35-2.82-2.74-4.95,21.88-76.31,72.17-139.52,141.59-178.01,69.43-38.49,149.69-47.63,225.99-25.75,2.12.61,3.35,2.82,2.74,4.95-.61,2.12-2.83,3.35-4.95,2.74-153.28-43.95-313.74,44.99-357.69,198.27-.5,1.75-2.1,2.9-3.84,2.9Z"/>
  <path class="cls-1" d="M876.03,944.83c-1.24,0-2.46-.57-3.24-1.65-1.3-1.79-.9-4.29.89-5.59,133.05-96.67,162.65-283.55,65.98-416.6-1.3-1.79-.9-4.29.88-5.59,1.79-1.3,4.29-.9,5.59.88,48.08,66.18,67.52,147.12,54.72,227.92-12.8,80.8-56.29,151.77-122.47,199.85-.71.52-1.53.76-2.35.76Z"/>
  <path class="cls-1" d="M683.16,1013.07s-.09,0-.14,0c-84.25-2.94-162.31-38.52-219.8-100.17-57.49-61.65-87.53-142-84.59-226.25.08-2.21,1.93-3.92,4.14-3.86,2.21.08,3.94,1.93,3.86,4.14-5.92,169.51,127.17,312.23,296.68,318.15,2.21.08,3.94,1.93,3.86,4.14-.08,2.16-1.85,3.86-4,3.86Z"/>
  <path class="cls-1" d="M449.6,490.79c-.91,0-1.82-.31-2.57-.94-1.69-1.42-1.91-3.94-.49-5.64,55.84-66.55,134.26-107.37,220.8-114.94,86.54-7.57,170.85,19.01,237.4,74.85,1.69,1.42,1.91,3.94.49,5.64-1.42,1.69-3.94,1.91-5.64.49-64.91-54.47-147.15-80.4-231.56-73.01-84.41,7.39-160.9,47.2-215.37,112.11-.79.94-1.92,1.43-3.07,1.43Z"/>
  <path class="cls-1" d="M767.04,1025.33c-1.85,0-3.51-1.29-3.91-3.17-.46-2.16.92-4.28,3.08-4.74,176.46-37.51,289.51-211.58,252-388.05-.46-2.16.92-4.28,3.08-4.74,2.16-.46,4.28.92,4.74,3.08,18.61,87.57,2.01,177.15-46.75,252.23-48.76,75.08-123.84,126.69-211.41,145.3-.28.06-.56.09-.84.09Z"/>
  <path class="cls-1" d="M543.59,1007.69c-.59,0-1.19-.13-1.75-.41-82.93-40.45-145.14-110.76-175.18-198s-24.31-180.95,16.14-263.88c.97-1.99,3.36-2.81,5.35-1.84,1.99.97,2.81,3.36,1.84,5.35-81.56,167.22-11.87,369.62,155.35,451.18,1.99.97,2.81,3.36,1.84,5.35-.69,1.42-2.12,2.25-3.6,2.25Z"/>
  <path class="cls-1" d="M1013.21,542.88c-1.48,0-2.9-.83-3.6-2.25-40.75-83.54-111.58-146.21-199.47-176.47-87.88-30.26-182.29-24.49-265.83,16.26-1.99.97-4.38.14-5.35-1.84-.97-1.99-.14-4.38,1.84-5.35,43.19-21.07,89.22-33.04,136.8-35.6,45.96-2.46,91.43,3.91,135.14,18.96,43.71,15.05,83.47,38.02,118.17,68.26,35.92,31.31,64.82,69.08,85.89,112.28.97,1.99.14,4.38-1.84,5.35-.56.28-1.16.41-1.75.41Z"/>
  <path class="cls-1" d="M697.88,1065.37c-25.57,0-51.17-2.71-76.62-8.12-2.16-.46-3.54-2.58-3.08-4.74.46-2.16,2.58-3.54,4.74-3.08,93.76,19.93,189.67,2.15,270.06-50.05,80.39-52.21,135.64-132.59,155.57-226.35.46-2.16,2.58-3.54,4.74-3.08,2.16.46,3.54,2.58,3.08,4.74-10.3,48.44-29.77,93.42-57.89,133.68-27.16,38.89-61.19,71.77-101.15,97.72-39.96,25.95-83.83,43.67-130.41,52.66-22.89,4.42-45.95,6.63-69.05,6.63Z"/>
  <path class="cls-1" d="M406.28,940.1c-1.14,0-2.27-.49-3.07-1.43-32.81-39.1-56.98-83.45-71.84-131.84-14.35-46.73-19.46-95.23-15.18-144.14,4.28-48.92,17.73-95.79,39.98-139.32,23.04-45.07,54.54-84.55,93.64-117.36,1.69-1.42,4.22-1.2,5.64.49,1.42,1.69,1.2,4.22-.49,5.64-156.32,131.17-176.78,365.06-45.62,521.38,1.42,1.69,1.2,4.22-.49,5.64-.75.63-1.66.94-2.57.94Z"/>
  <path class="cls-1" d="M1083.49,684.13c-2.15,0-3.92-1.7-4-3.86-7.34-210.31-184.42-375.43-394.74-368.1-2.21.08-4.06-1.65-4.14-3.86-.08-2.21,1.65-4.06,3.86-4.14,52.57-1.84,103.93,6.68,152.65,25.31,47.06,17.99,89.68,44.62,126.69,79.13,37.01,34.51,66.54,75.18,87.78,120.86,21.98,47.3,34.06,97.94,35.9,150.51.08,2.21-1.65,4.06-3.86,4.14-.05,0-.1,0-.14,0Z"/>
  <path class="cls-1" d="M695.96,1100.78c-30.41,0-60.7-3.47-90.57-10.41-52.36-12.16-101.15-34.48-145.01-66.35-1.79-1.3-2.18-3.8-.89-5.59,1.3-1.79,3.8-2.18,5.59-.89,175.57,127.56,422.19,88.5,549.75-87.07,1.3-1.79,3.8-2.18,5.59-.88,1.79,1.3,2.18,3.8.88,5.59-31.86,43.86-71.37,80.16-117.41,107.91-44.47,26.8-93.14,44.52-144.65,52.68-21.08,3.34-42.21,5.01-63.28,5.01Z"/>
  <path class="cls-1" d="M298.96,811.25c-1.74,0-3.34-1.14-3.84-2.9-15.4-53.71-19.82-108.83-13.14-163.82,6.45-53.12,22.94-103.89,49-150.91,26.06-47.01,60.38-87.9,102.01-121.52,43.1-34.81,92.19-60.27,145.89-75.67,2.12-.61,4.34.62,4.95,2.74.61,2.12-.62,4.34-2.74,4.95-104.21,29.88-190.55,98.56-243.11,193.38-52.56,94.82-65.05,204.43-35.17,308.65.61,2.12-.62,4.34-2.74,4.95-.37.11-.74.16-1.1.16Z"/>
  <path class="cls-1" d="M1090.89,856.84c-.5,0-1.01-.09-1.5-.29-2.05-.83-3.04-3.16-2.21-5.21,86.46-213.98-17.3-458.41-231.28-544.87-2.05-.83-3.04-3.16-2.21-5.21.83-2.05,3.16-3.04,5.21-2.21,53.39,21.57,100.96,52.95,141.39,93.28,39.05,38.95,69.82,84.55,91.47,135.55,21.65,50.99,33.07,104.81,33.97,159.95.92,57.09-9.55,113.11-31.12,166.5-.63,1.56-2.13,2.5-3.71,2.5Z"/>
  <path class="cls-1" d="M695.12,1139.09c-38.3,0-76.44-5.04-113.92-15.08-55.15-14.78-106.11-39.64-151.46-73.91-46.95-35.48-85.81-79.52-115.48-130.92-1.1-1.91-.45-4.36,1.46-5.46,1.91-1.1,4.36-.45,5.46,1.46,57.65,99.84,150.72,171.26,262.08,201.1,111.36,29.84,227.68,14.53,327.52-43.12,1.91-1.1,4.36-.45,5.46,1.46,1.1,1.91.45,4.36-1.46,5.46-51.4,29.67-107.07,48.39-165.47,55.64-18.07,2.24-36.15,3.36-54.2,3.36Z"/>
  <path class="cls-1" d="M248.97,634.46c-.19,0-.37-.01-.56-.04-2.19-.31-3.71-2.33-3.4-4.52,8.51-60.57,28.63-117.66,59.81-169.69,30.11-50.25,69.2-93.69,116.2-129.1,47-35.41,99.53-61.02,156.13-76.11,58.61-15.62,119.03-19.23,179.6-10.72,2.19.31,3.71,2.33,3.4,4.52-.31,2.19-2.33,3.72-4.52,3.4-117.73-16.55-234.86,13.75-329.81,85.29-94.95,71.55-156.35,175.79-172.9,293.52-.28,2-1.99,3.44-3.96,3.44Z"/>
  <path class="cls-1" d="M1021.33,1033.02c-1.05,0-2.09-.41-2.88-1.22-1.53-1.59-1.49-4.12.1-5.66,182.05-175.81,187.14-466.95,11.33-649-1.53-1.59-1.49-4.12.1-5.66,1.59-1.53,4.12-1.49,5.66.1,43.79,45.35,77.39,97.92,99.87,156.25,21.71,56.34,32.18,115.65,31.12,176.29-1.06,60.64-13.59,119.55-37.26,175.1-24.5,57.51-59.92,108.88-105.26,152.67-.78.75-1.78,1.12-2.78,1.12Z"/>
  <path class="cls-1" d="M692.63,1180.32c-47.2,0-93.82-6.93-139.15-20.73-59.53-18.12-114.35-47.25-162.93-86.59-48.58-39.34-88.47-86.9-118.57-141.37-31.16-56.39-50.41-117.75-57.2-182.37-.23-2.2,1.36-4.17,3.56-4.4,2.2-.23,4.17,1.36,4.4,3.56,27.28,259.55,260.63,448.52,520.18,421.23,2.19-.24,4.17,1.36,4.4,3.56.23,2.2-1.36,4.17-3.56,4.4-17.09,1.8-34.14,2.69-51.12,2.69Z"/>
  <path class="cls-1" d="M277.7,435.21c-.72,0-1.46-.2-2.12-.61-1.87-1.17-2.44-3.64-1.27-5.51,35.49-56.79,81.04-104.93,135.38-143.09,52.49-36.85,110.94-62.89,173.71-77.38,62.77-14.49,126.72-16.71,190.05-6.6,65.57,10.47,127.62,33.77,184.41,69.26,1.87,1.17,2.44,3.64,1.27,5.51s-3.64,2.44-5.51,1.27c-228.23-142.61-529.92-72.96-672.54,155.27-.76,1.21-2.06,1.88-3.4,1.88Z"/>
  <path class="cls-1" d="M873.19,1178.36c-1.63,0-3.17-1.01-3.76-2.63-.76-2.08.31-4.37,2.39-5.13,260.77-94.91,395.71-384.29,300.8-645.06-.76-2.08.31-4.37,2.39-5.13,2.08-.76,4.37.32,5.13,2.39,23.61,64.86,33.8,132.4,30.31,200.76-3.38,66.02-19.32,130.01-47.38,190.19-28.06,60.18-66.84,113.52-115.24,158.55-50.12,46.61-108.41,82.22-173.27,105.82-.45.16-.91.24-1.37.24Z"/>
  <path class="cls-1" d="M530.47,1199.24c-.41,0-.83-.06-1.24-.2-67.66-21.98-128.99-56.56-182.28-102.77-51.48-44.63-93.33-98.19-124.41-159.17-31.07-60.98-49.79-126.32-55.64-194.2-6.06-70.28,2.02-140.22,24-207.88.68-2.1,2.94-3.25,5.04-2.57,2.1.68,3.25,2.94,2.57,5.04-88.43,272.16,61.04,565.51,333.2,653.94,2.1.68,3.25,2.94,2.57,5.04-.55,1.69-2.12,2.76-3.8,2.76Z"/>
  <path class="cls-1" d="M1143.73,394.07c-1.29,0-2.55-.62-3.32-1.76-165.01-244.63-498.27-309.41-742.9-144.41-1.83,1.24-4.32.75-5.55-1.08-1.23-1.83-.75-4.32,1.08-5.55,60.79-41,127.79-68.87,199.14-82.84,68.92-13.49,138.97-13.5,208.22-.04,69.25,13.46,134.19,39.72,193.04,78.04,60.93,39.68,112.61,90.62,153.61,151.4,1.23,1.83.75,4.32-1.08,5.55-.69.46-1.46.68-2.23.68Z"/>
  <path class="cls-1" d="M699.74,1259.21c-13.25,0-26.54-.47-39.88-1.4-2.2-.15-3.87-2.07-3.71-4.27.15-2.2,2.07-3.87,4.27-3.71,147.04,10.28,289.28-37.31,400.52-134.01,111.24-96.7,178.17-230.93,188.45-377.97.15-2.2,2.07-3.87,4.27-3.71,2.2.15,3.87,2.07,3.71,4.27-5.27,75.39-25.15,147.49-59.09,214.31-32.78,64.53-77.22,121.44-132.09,169.14-54.87,47.7-117.41,83.79-185.88,107.27-58.35,20.01-118.92,30.09-180.56,30.09Z"/>
  <path class="cls-1" d="M307.78,1125.99c-.95,0-1.91-.34-2.67-1.03-57.89-52.12-103.83-114.02-136.57-183.98-31.62-67.57-49.63-139.78-53.56-214.62s6.45-148.53,30.83-219.04c25.24-73,64.47-139.37,116.59-197.25,1.48-1.64,4.01-1.77,5.65-.3,1.64,1.48,1.77,4.01.3,5.65-101.7,112.95-153.33,258.74-145.37,410.52,7.95,151.78,74.54,291.38,187.49,393.08,1.64,1.48,1.77,4.01.3,5.65-.79.88-1.88,1.32-2.97,1.32Z"/>
  <path class="cls-1" d="M1280.45,593.35c-1.9,0-3.59-1.37-3.93-3.31-56.18-318.61-361.09-532.11-679.7-475.93-2.18.39-4.25-1.07-4.63-3.24-.38-2.18,1.07-4.25,3.25-4.63,79.07-13.94,158.5-11.98,236.1,5.83,74.95,17.2,145.03,48.39,208.3,92.69,63.27,44.3,116.55,99.49,158.34,164.04,43.27,66.82,72.29,140.8,86.23,219.86.38,2.18-1.07,4.25-3.25,4.63-.23.04-.47.06-.7.06Z"/>
  <path class="cls-1" d="M697.3,1313.85c-18.11,0-36.25-.8-54.42-2.42-81.74-7.26-160.23-30.63-233.3-69.48-1.95-1.04-2.69-3.46-1.65-5.41,1.04-1.95,3.46-2.69,5.41-1.65,142.69,75.87,306.38,91.63,460.92,44.38,154.54-47.25,281.43-151.85,357.3-294.54,1.04-1.95,3.46-2.69,5.41-1.65,1.95,1.04,2.69,3.46,1.65,5.41-38.85,73.07-90.85,136.34-154.56,188.06-61.53,49.96-131.33,87.09-207.47,110.37-58.62,17.92-118.72,26.93-179.3,26.93Z"/>
  <path class="cls-1" d="M117.54,953.43c-1.53,0-2.99-.88-3.66-2.37-34.69-77.92-53.09-160.31-54.67-244.87-1.53-81.68,12.6-161.94,42.01-238.55s72.61-145.71,128.4-205.39c57.76-61.78,126.56-110.7,204.48-145.4,2.02-.9,4.38,0,5.28,2.03.9,2.02,0,4.38-2.03,5.28-152.23,67.78-268.95,190.77-328.66,346.34-59.72,155.57-55.28,325.07,12.5,477.3.9,2.02,0,4.38-2.03,5.28-.53.24-1.08.35-1.62.35Z"/>
  <path class="cls-1" d="M1328.5,853.75c-.32,0-.65-.04-.97-.12-2.14-.53-3.45-2.71-2.91-4.85,85.81-344.16-124.37-693.96-468.53-779.76-2.14-.53-3.45-2.71-2.91-4.85.53-2.14,2.7-3.45,4.85-2.91,85.31,21.27,163.9,58.61,233.59,110.99,67.31,50.59,123.53,113,167.09,185.5,43.56,72.5,72.28,151.44,85.34,234.62,13.53,86.12,9.6,173.04-11.67,258.35-.45,1.82-2.08,3.03-3.88,3.03Z"/>
  <path class="cls-1" d="M696.11,1372.71c-27.49,0-55.07-1.69-82.68-5.08-86.53-10.62-168.87-37.4-244.73-79.57-78.54-43.67-146.65-102.01-202.44-173.42-1.36-1.74-1.05-4.25.69-5.61,1.74-1.36,4.25-1.05,5.61.69,109.07,139.61,265.99,228.39,441.83,249.98,175.85,21.59,349.58-26.59,489.18-135.66,1.74-1.36,4.26-1.05,5.61.69,1.36,1.74,1.05,4.25-.69,5.61-71.41,55.79-151.61,95.93-238.38,119.3-57.07,15.37-115.34,23.08-174.03,23.08Z"/>
  <path class="cls-1" d="M4,695.91c-2.21,0-4-1.79-4-4,0-93.41,18.29-184.02,54.38-269.32,34.85-82.39,84.74-156.39,148.28-219.93s137.54-113.43,219.93-148.28C507.89,18.29,598.5,0,691.91,0c2.21,0,4,1.79,4,4s-1.79,4-4,4C314.8,8,8,314.8,8,691.91c0,2.21-1.79,4-4,4Z"/>
</svg>